<svg xmlns="http://www.w3.org/2000/svg" width="1100" height="360" viewBox="0 0 1100 360">
  <rect width="100%" height="100%" fill="#f8fafc"/>
  <text x="550.0" y="22" text-anchor="middle" font-size="16" fill="#1e2a38" font-family="Alegreya Sans, sans-serif">Compression demo optimization energy trend</text>
  <line x1="70" y1="305.00" x2="1070" y2="305.00" stroke="#d7dde6" stroke-width="1"/><text x="62" y="309.00" text-anchor="end" font-size="11" fill="#4a5568">0.146</text><line x1="70" y1="251.00" x2="1070" y2="251.00" stroke="#d7dde6" stroke-width="1"/><text x="62" y="255.00" text-anchor="end" font-size="11" fill="#4a5568">0.191</text><line x1="70" y1="197.00" x2="1070" y2="197.00" stroke="#d7dde6" stroke-width="1"/><text x="62" y="201.00" text-anchor="end" font-size="11" fill="#4a5568">0.236</text><line x1="70" y1="143.00" x2="1070" y2="143.00" stroke="#d7dde6" stroke-width="1"/><text x="62" y="147.00" text-anchor="end" font-size="11" fill="#4a5568">0.282</text><line x1="70" y1="89.00" x2="1070" y2="89.00" stroke="#d7dde6" stroke-width="1"/><text x="62" y="93.00" text-anchor="end" font-size="11" fill="#4a5568">0.327</text><line x1="70" y1="35.00" x2="1070" y2="35.00" stroke="#d7dde6" stroke-width="1"/><text x="62" y="39.00" text-anchor="end" font-size="11" fill="#4a5568">0.373</text><line x1="70.00" y1="35" x2="70.00" y2="305" stroke="#eef2f7" stroke-width="1"/><text x="70.00" y="323" text-anchor="middle" font-size="11" fill="#4a5568">0</text><line x1="270.00" y1="35" x2="270.00" y2="305" stroke="#eef2f7" stroke-width="1"/><text x="270.00" y="323" text-anchor="middle" font-size="11" fill="#4a5568">249</text><line x1="470.00" y1="35" x2="470.00" y2="305" stroke="#eef2f7" stroke-width="1"/><text x="470.00" y="323" text-anchor="middle" font-size="11" fill="#4a5568">498</text><line x1="670.00" y1="35" x2="670.00" y2="305" stroke="#eef2f7" stroke-width="1"/><text x="670.00" y="323" text-anchor="middle" font-size="11" fill="#4a5568">748</text><line x1="870.00" y1="35" x2="870.00" y2="305" stroke="#eef2f7" stroke-width="1"/><text x="870.00" y="323" text-anchor="middle" font-size="11" fill="#4a5568">997</text><line x1="1070.00" y1="35" x2="1070.00" y2="305" stroke="#eef2f7" stroke-width="1"/><text x="1070.00" y="323" text-anchor="middle" font-size="11" fill="#4a5568">1246</text>
  <polyline fill="none" stroke="#2f6db5" stroke-width="2.2" points="70.00,120.75 70.80,151.69 71.61,151.36 72.41,191.93 73.21,203.26 74.01,224.77 74.82,239.27 75.62,245.95 76.42,254.03 77.22,262.06 78.03,267.81 78.83,272.63 79.63,275.72 80.43,279.67 81.24,282.22 82.04,284.90 82.84,286.53 83.64,289.71 84.45,291.33 85.25,290.14 86.05,292.51 86.85,292.56 87.66,295.93 88.46,296.68 89.26,297.10 90.06,294.43 90.87,299.00 91.67,295.40 92.47,296.26 93.27,297.66 94.08,297.50 94.88,298.74 95.68,298.37 96.48,301.51 97.29,299.88 98.09,299.68 98.89,301.29 99.70,300.30 100.50,300.97 101.30,301.71 102.10,301.15 102.91,301.83 103.71,302.28 104.51,302.13 105.31,302.51 106.12,303.32 106.92,299.52 107.72,302.37 108.52,300.35 109.33,302.99 110.13,300.15 110.93,303.05 111.73,300.31 112.54,303.50 113.34,300.69 114.14,303.23 114.94,300.66 115.75,303.70 116.55,300.75 117.35,303.76 118.15,300.94 118.96,303.81 119.76,300.91 120.56,303.86 121.36,300.99 122.17,303.83 122.97,301.09 123.77,302.14 124.57,302.08 125.38,301.36 126.18,301.41 126.98,304.13 127.78,302.04 128.59,303.35 129.39,301.32 130.19,303.26 131.00,301.40 131.80,303.31 132.60,301.47 133.40,302.52 134.21,302.35 135.01,304.10 135.81,301.60 136.61,302.40 137.42,302.58 138.22,302.44 139.02,302.62 139.82,302.48 140.63,302.67 141.43,302.52 142.23,302.55 143.03,301.87 143.84,302.54 144.64,301.91 145.44,302.61 146.24,302.60 147.05,304.40 147.85,301.91 148.65,302.86 149.45,302.88 150.26,304.53 151.06,302.02 151.86,304.44 152.66,302.00 153.47,303.81 154.27,302.01 155.07,303.83 155.87,302.01 156.68,303.84 157.48,302.05 158.28,303.85 159.09,302.05 159.89,303.88 160.69,302.15 161.49,304.54 162.30,302.12 163.10,303.91 163.90,302.16 164.70,304.55 165.51,302.13 166.31,303.93 167.11,302.21 167.91,304.59 168.72,302.24 169.52,304.55 170.32,302.19 171.12,304.61 171.93,302.20 172.73,304.62 173.53,304.74 174.33,304.75 175.14,304.74 175.94,304.60 176.74,302.26 177.54,304.65 178.35,304.78 179.15,304.64 179.95,304.79 180.75,304.65 181.56,304.80 182.36,304.70 183.16,304.82 183.96,304.08 184.77,304.84 185.57,304.10 186.37,303.08 187.17,304.11 187.98,304.87 188.78,304.14 189.58,303.09 190.39,304.14 191.19,304.89 191.99,304.16 192.79,303.11 193.60,304.17 194.40,304.77 195.20,303.21 196.00,303.20 196.81,303.24 197.61,303.23 198.41,303.26 199.21,303.25 200.02,303.27 200.82,303.28 201.62,303.31 202.42,304.20 203.23,304.79 204.03,304.80 204.83,304.81 205.63,304.83 206.44,304.83 207.24,304.84 208.04,304.84 208.84,304.84 209.65,304.27 210.45,304.86 211.25,304.92 212.05,304.88 212.86,304.93 213.66,304.89 214.46,304.95 215.26,304.91 216.07,304.87 216.87,304.87 217.67,304.87 218.48,304.88 219.28,304.30 220.08,304.90 220.88,304.32 221.69,304.91 222.49,304.92 223.29,304.92 224.09,304.93 224.90,304.98 225.70,304.99 226.50,304.35 227.30,304.36 228.11,304.37 228.91,305.00 229.71,304.93 230.51,304.41 231.32,258.49 232.12,284.15 232.92,290.25 233.72,292.10 234.53,293.69 235.33,292.91 236.13,293.10 236.93,293.24 237.74,293.18 238.54,293.68 239.34,294.59 240.14,294.63 240.95,293.63 241.75,294.82 242.55,294.86 243.35,294.91 244.16,293.93 244.96,295.04 245.76,295.08 246.57,295.11 247.37,294.10 248.17,294.16 248.97,295.21 249.78,294.22 250.58,294.23 251.38,294.24 252.18,294.36 252.99,295.45 253.79,296.38 254.59,295.49 255.39,295.51 256.20,295.52 257.00,295.54 257.80,298.36 258.60,296.54 259.41,295.58 260.21,295.60 261.01,295.62 261.81,295.63 262.62,294.57 263.42,294.57 264.22,294.48 265.02,294.61 265.83,294.53 266.63,295.74 267.43,296.58 268.23,298.37 269.04,296.59 269.84,296.57 270.64,296.60 271.44,295.80 272.25,296.62 273.05,295.81 273.85,296.64 274.65,295.85 275.46,295.86 276.26,295.87 277.06,295.88 277.87,294.70 278.67,295.88 279.47,295.88 280.27,295.90 281.08,295.91 281.88,294.76 282.68,295.92 283.48,295.92 284.29,295.93 285.09,294.78 285.89,295.94 286.69,295.95 287.50,294.82 288.30,295.96 289.10,295.97 289.90,294.78 290.71,294.78 291.51,294.79 292.31,294.91 293.11,294.82 293.92,294.94 294.72,298.44 295.52,296.72 296.32,298.46 297.13,296.73 297.93,298.47 298.73,296.74 299.53,296.73 300.34,296.75 301.14,296.73 301.94,298.48 302.74,296.75 303.55,295.97 304.35,296.75 305.15,295.98 305.96,295.99 306.76,296.77 307.56,296.07 308.36,296.01 309.17,296.09 309.97,296.09 310.77,294.98 311.57,296.10 312.38,296.10 313.18,295.02 313.98,296.11 314.78,296.12 315.59,295.02 316.39,296.12 317.19,296.13 317.99,295.05 318.80,296.14 319.60,296.14 320.40,295.07 321.20,294.74 322.01,294.63 322.81,294.76 323.61,294.66 324.41,294.79 325.22,294.68 326.02,294.81 326.82,294.45 327.62,294.37 328.43,294.27 329.23,294.39 330.03,294.29 330.83,294.61 331.64,294.30 332.44,294.65 333.24,294.31 334.04,294.70 334.85,294.30 335.65,294.72 336.45,294.32 337.26,294.72 338.06,294.58 338.86,294.46 339.66,294.74 340.47,294.64 341.27,294.35 342.07,294.36 342.87,294.65 343.68,294.67 344.48,294.50 345.28,294.67 346.08,294.36 346.89,294.81 347.69,294.38 348.49,294.81 349.29,294.67 350.10,294.52 350.90,294.39 351.70,294.70 352.50,294.36 353.31,294.70 354.11,294.38 354.91,294.40 355.71,294.70 356.52,294.85 357.32,294.39 358.12,294.41 358.92,294.71 359.73,294.42 360.53,294.73 361.33,294.40 362.13,294.73 362.94,294.74 363.74,294.39 364.54,294.88 365.35,294.42 366.15,294.88 366.95,294.75 367.75,294.43 368.56,294.75 369.36,294.43 370.16,294.91 370.96,294.77 371.77,294.45 372.57,294.76 373.37,294.87 374.17,298.01 374.98,296.30 375.78,296.37 376.58,296.38 377.38,298.05 378.19,296.39 378.99,298.07 379.79,296.40 380.59,298.08 381.40,296.41 382.20,298.10 383.00,294.81 383.80,295.65 384.61,294.89 385.41,295.66 386.21,294.89 387.01,298.10 387.82,296.42 388.62,298.12 389.42,294.82 390.22,295.67 391.03,294.85 391.83,295.67 392.63,237.44 393.43,256.94 394.24,274.60 395.04,281.46 395.84,283.44 396.65,283.66 397.45,283.76 398.25,284.08 399.05,283.86 399.86,284.84 400.66,287.92 401.46,285.09 402.26,285.11 403.07,284.46 403.87,284.49 404.67,284.65 405.47,284.58 406.28,285.48 407.08,285.53 407.88,284.73 408.68,285.57 409.49,284.82 410.29,285.63 411.09,284.87 411.89,285.66 412.70,288.94 413.50,286.84 414.30,285.72 415.10,284.97 415.91,285.81 416.71,288.97 417.51,284.94 418.31,285.78 419.12,285.07 419.92,285.12 420.72,288.98 421.52,286.95 422.33,288.99 423.13,286.96 423.93,289.00 424.74,286.96 425.54,289.01 426.34,286.97 427.14,286.86 427.95,287.00 428.75,289.03 429.55,287.00 430.35,286.89 431.16,287.07 431.96,286.91 432.76,285.16 433.56,285.33 434.37,285.33 435.17,285.37 435.97,285.37 436.77,285.41 437.58,285.32 438.38,285.51 439.18,284.97 439.98,286.18 440.79,287.12 441.59,288.96 442.39,287.04 443.19,285.44 444.00,285.56 444.80,285.01 445.60,285.56 446.40,285.41 447.21,285.50 448.01,285.44 448.81,285.07 449.61,285.40 450.42,285.65 451.22,285.53 452.02,285.67 452.83,285.49 453.63,285.45 454.43,285.50 455.23,285.58 456.04,285.51 456.84,285.52 457.64,287.05 458.44,287.06 459.25,285.61 460.05,285.18 460.85,288.94 461.65,287.14 462.46,285.61 463.26,285.53 464.06,285.21 464.86,285.88 465.67,285.64 466.47,285.26 467.27,285.65 468.07,285.56 468.88,285.58 469.68,288.93 470.48,284.01 471.28,286.01 472.09,285.67 472.89,285.67 473.69,285.60 474.49,285.29 475.30,287.10 476.10,285.69 476.90,285.69 477.70,285.61 478.51,285.68 479.31,285.70 480.11,285.70 480.91,285.32 481.72,288.94 482.52,284.04 483.32,286.06 484.13,285.72 484.93,285.79 485.73,285.74 486.53,285.33 487.34,287.13 488.14,285.74 488.94,285.72 489.74,290.98 490.55,284.06 491.35,291.22 492.15,288.69 492.95,289.00 493.76,289.03 494.56,289.05 495.36,287.40 496.16,289.06 496.97,287.10 497.77,289.08 498.57,287.41 499.37,289.09 500.18,287.11 500.98,289.10 501.78,287.12 502.58,289.07 503.39,287.12 504.19,289.08 504.99,287.13 505.79,289.09 506.60,287.13 507.40,289.10 508.20,287.14 509.00,289.11 509.81,287.14 510.61,289.11 511.41,287.14 512.22,289.11 513.02,287.14 513.82,289.12 514.62,287.14 515.43,289.14 516.23,287.17 517.03,289.15 517.83,287.17 518.64,289.21 519.44,287.18 520.24,289.22 521.04,287.18 521.85,289.23 522.65,287.18 523.45,287.39 524.25,289.24 525.06,287.19 525.86,289.24 526.66,287.19 527.46,287.39 528.27,289.25 529.07,287.20 529.87,287.41 530.67,289.26 531.48,287.21 532.28,287.41 533.08,289.27 533.88,287.21 534.69,287.42 535.49,289.28 536.29,289.28 537.09,289.29 537.90,287.22 538.70,286.50 539.50,289.30 540.30,289.31 541.11,289.32 541.91,287.24 542.71,286.51 543.52,289.33 544.32,289.33 545.12,289.34 545.92,287.25 546.73,286.46 547.53,289.35 548.33,289.35 549.13,289.36 549.94,289.35 550.74,289.38 551.54,289.37 552.34,289.39 553.15,289.38 553.95,212.35 554.75,263.97 555.55,267.50 556.36,270.74 557.16,272.89 557.96,272.95 558.76,275.61 559.57,273.39 560.37,273.79 561.17,273.93 561.97,274.39 562.78,274.14 563.58,274.32 564.38,274.69 565.18,274.61 565.99,274.39 566.79,275.02 567.59,278.09 568.39,278.11 569.20,278.14 570.00,278.16 570.80,278.33 571.61,278.35 572.41,278.20 573.21,276.52 574.01,275.67 574.82,278.25 575.62,278.42 576.42,278.43 577.22,278.40 578.03,278.41 578.83,278.30 579.63,278.43 580.43,278.44 581.24,278.34 582.04,278.46 582.84,278.35 583.64,277.02 584.45,278.48 585.25,276.86 586.05,277.14 586.85,278.49 587.66,277.08 588.46,277.09 589.26,277.11 590.06,277.12 590.87,277.14 591.67,277.15 592.47,277.15 593.27,277.17 594.08,277.18 594.88,275.26 595.68,277.90 596.48,277.21 597.29,277.22 598.09,277.23 598.89,277.23 599.70,277.25 600.50,277.25 601.30,277.27 602.10,275.42 602.91,275.44 603.71,275.49 604.51,275.49 605.31,275.55 606.12,275.57 606.92,275.59 607.72,275.62 608.52,275.55 609.33,275.56 610.13,279.20 610.93,277.21 611.73,279.21 612.54,277.21 613.34,277.31 614.14,279.22 614.94,277.22 615.75,277.33 616.55,279.25 617.35,277.24 618.15,277.35 618.96,279.27 619.76,277.09 620.56,278.03 621.36,277.28 622.17,277.31 622.97,275.53 623.77,275.56 624.57,275.58 625.38,276.27 626.18,279.20 626.98,279.21 627.78,279.23 628.59,279.23 629.39,279.25 630.19,279.25 631.00,279.27 631.80,279.27 632.60,279.28 633.40,279.29 634.21,279.29 635.01,279.30 635.81,279.31 636.61,279.32 637.42,279.32 638.22,279.32 639.02,277.26 639.82,276.25 640.63,279.34 641.43,279.34 642.23,279.44 643.03,279.36 643.84,279.37 644.64,279.37 645.44,279.38 646.24,279.38 647.05,277.28 647.85,276.43 648.65,277.44 649.45,276.47 650.26,277.97 651.06,277.97 651.86,277.99 652.66,277.99 653.47,278.01 654.27,278.01 655.07,278.02 655.87,278.03 656.68,278.04 657.48,278.04 658.28,278.05 659.09,278.05 659.89,278.06 660.69,278.07 661.49,278.08 662.30,278.08 663.10,278.09 663.90,278.10 664.70,278.11 665.51,278.11 666.31,278.12 667.11,278.13 667.91,278.14 668.72,278.14 669.52,278.15 670.32,278.15 671.12,278.16 671.93,278.17 672.73,278.18 673.53,278.18 674.33,278.19 675.14,278.19 675.94,278.20 676.74,278.21 677.54,278.22 678.35,278.22 679.15,278.22 679.95,278.23 680.75,278.24 681.56,278.25 682.36,278.25 683.16,278.26 683.96,276.82 684.77,277.31 685.57,276.86 686.37,277.33 687.17,276.89 687.98,277.35 688.78,276.91 689.58,277.37 690.39,276.93 691.19,277.40 691.99,276.95 692.79,277.41 693.60,276.96 694.40,277.37 695.20,276.98 696.00,277.38 696.81,277.00 697.61,277.01 698.41,277.01 699.21,275.41 700.02,275.49 700.82,277.05 701.62,279.45 702.42,276.26 703.23,277.70 704.03,279.80 704.83,276.26 705.63,277.71 706.44,279.82 707.24,276.27 708.04,275.80 708.84,279.81 709.65,276.28 710.45,275.83 711.25,276.31 712.05,275.87 712.86,276.23 713.66,275.90 714.46,276.31 715.26,169.76 716.07,225.65 716.87,245.92 717.67,258.35 718.48,262.68 719.28,264.95 720.08,264.35 720.88,265.41 721.69,263.45 722.49,265.62 723.29,263.70 724.09,265.80 724.90,266.09 725.70,266.01 726.50,266.44 727.30,263.90 728.11,266.32 728.91,266.49 729.71,266.44 730.51,266.75 731.32,266.55 732.12,266.72 732.92,266.63 733.72,266.80 734.53,264.01 735.33,263.64 736.13,265.20 736.93,265.22 737.74,264.89 738.54,263.99 739.34,265.57 740.14,265.02 740.95,264.16 741.75,265.91 742.55,265.56 743.35,264.29 744.16,264.63 744.96,266.00 745.76,264.92 746.57,266.07 747.37,264.95 748.17,266.09 748.97,264.97 749.78,266.11 750.58,264.99 751.38,266.13 752.18,265.02 752.99,266.15 753.79,266.19 754.59,266.17 755.39,266.21 756.20,266.19 757.00,266.24 757.80,266.22 758.60,266.26 759.41,266.45 760.21,268.15 761.01,267.31 761.81,268.35 762.62,267.34 763.42,268.37 764.22,267.35 765.02,268.39 765.83,267.37 766.63,268.40 767.43,267.38 768.23,268.42 769.04,267.39 769.84,268.43 770.64,267.40 771.44,268.44 772.25,267.42 773.05,268.46 773.85,267.43 774.65,268.47 775.46,267.44 776.26,268.48 777.06,267.45 777.87,268.49 778.67,267.46 779.47,268.18 780.27,267.47 781.08,267.34 781.88,267.34 782.68,268.07 783.48,267.50 784.29,266.50 785.09,268.40 785.89,267.51 786.69,268.09 787.50,267.52 788.30,266.52 789.10,268.42 789.90,267.53 790.71,268.44 791.51,267.54 792.31,268.12 793.11,267.41 793.92,265.54 794.72,268.42 795.52,267.54 796.32,268.46 797.13,267.57 797.93,268.47 798.73,267.58 799.53,268.16 800.34,267.45 801.14,268.17 801.94,267.46 802.74,268.18 803.55,267.47 804.35,265.57 805.15,266.18 805.96,266.11 806.76,266.26 807.56,266.04 808.36,266.28 809.17,266.05 809.97,266.22 810.77,266.21 811.57,266.23 812.38,266.23 813.18,266.26 813.98,266.26 814.78,266.27 815.59,266.25 816.39,266.29 817.19,266.28 817.99,266.30 818.80,266.30 819.60,266.31 820.40,266.32 821.20,266.32 822.01,266.33 822.81,266.33 823.61,266.34 824.41,266.35 825.22,266.35 826.02,266.35 826.82,266.36 827.62,266.37 828.43,266.37 829.23,266.37 830.03,266.38 830.83,266.39 831.64,266.39 832.44,266.39 833.24,266.40 834.04,266.41 834.85,266.41 835.65,266.42 836.45,266.42 837.26,266.43 838.06,266.43 838.86,266.43 839.66,266.44 840.47,266.44 841.27,266.45 842.07,266.45 842.87,266.46 843.68,266.46 844.48,266.47 845.28,266.47 846.08,266.47 846.89,266.47 847.69,266.47 848.49,266.49 849.29,266.49 850.10,266.50 850.90,266.50 851.70,266.50 852.50,266.49 853.31,266.51 854.11,266.50 854.91,266.52 855.71,266.51 856.52,266.53 857.32,266.52 858.12,266.53 858.92,266.52 859.73,266.54 860.53,266.53 861.33,266.53 862.13,266.54 862.94,266.54 863.74,266.55 864.54,266.55 865.35,266.55 866.15,266.56 866.95,266.56 867.75,266.57 868.56,266.57 869.36,266.57 870.16,266.58 870.96,266.58 871.77,266.59 872.57,266.59 873.37,266.59 874.17,266.60 874.98,266.60 875.78,266.60 876.58,134.49 877.38,154.27 878.19,203.77 878.99,240.80 879.79,248.57 880.59,248.85 881.40,248.25 882.20,248.72 883.00,248.92 883.80,250.08 884.61,249.62 885.41,250.42 886.21,249.96 887.01,250.72 887.82,250.25 888.62,251.01 889.42,250.50 890.22,251.23 891.03,251.52 891.83,251.52 892.63,251.72 893.43,251.73 894.24,251.90 895.04,251.88 895.84,252.02 896.65,251.99 897.45,252.12 898.25,252.17 899.05,252.21 899.86,252.25 900.66,252.25 901.46,252.14 902.26,252.33 903.07,252.30 903.87,252.40 904.67,252.37 905.47,252.46 906.28,252.33 907.08,252.45 907.88,252.38 908.68,252.49 909.49,252.49 910.29,252.49 911.09,252.25 911.89,252.53 912.70,252.27 913.50,252.57 914.30,252.30 915.10,252.31 915.91,252.40 916.71,252.34 917.51,252.43 918.31,252.36 919.12,252.38 919.92,252.46 920.72,252.65 921.52,252.40 922.33,252.74 923.13,252.59 923.93,252.85 924.74,252.73 925.54,252.88 926.34,252.62 927.14,252.90 927.95,252.76 928.75,252.91 929.55,252.65 930.35,252.95 931.16,252.91 931.96,252.93 932.76,253.05 933.56,252.95 934.37,252.96 935.17,252.97 935.97,253.08 936.77,252.98 937.58,252.99 938.38,253.02 939.18,253.00 939.98,253.00 940.79,253.12 941.59,253.01 942.39,253.02 943.19,253.03 944.00,253.14 944.80,253.04 945.60,253.04 946.40,251.16 947.21,251.18 948.01,251.78 948.81,251.64 949.61,252.34 950.42,252.66 951.22,252.43 952.02,252.44 952.83,252.50 953.63,252.74 954.43,252.50 955.23,252.81 956.04,252.82 956.84,252.84 957.64,252.85 958.44,255.07 959.25,254.03 960.05,253.80 960.85,254.06 961.65,254.07 962.46,254.06 963.26,253.16 964.06,253.81 964.86,253.16 965.67,253.86 966.47,254.11 967.27,254.08 968.07,254.13 968.88,253.23 969.68,253.89 970.48,253.24 971.28,253.88 972.09,253.24 972.89,253.89 973.69,253.25 974.49,253.93 975.30,254.15 976.10,253.30 976.90,254.08 977.70,253.29 978.51,253.94 979.31,253.30 980.11,253.94 980.91,254.13 981.72,253.93 982.52,253.33 983.32,253.98 984.13,253.33 984.93,254.34 985.73,253.17 986.53,254.33 987.34,253.15 988.14,252.68 988.94,252.65 989.74,252.68 990.55,252.68 991.35,252.69 992.15,252.69 992.95,252.69 993.76,252.70 994.56,252.70 995.36,252.71 996.16,252.71 996.97,252.72 997.77,252.71 998.57,252.72 999.37,252.71 1000.18,252.72 1000.98,252.73 1001.78,252.74 1002.58,252.75 1003.39,252.75 1004.19,253.46 1004.99,253.47 1005.79,253.47 1006.60,253.48 1007.40,253.49 1008.20,253.50 1009.00,253.62 1009.81,250.45 1010.61,253.51 1011.41,253.52 1012.22,253.66 1013.02,253.67 1013.82,252.59 1014.62,252.76 1015.43,252.77 1016.23,252.77 1017.03,252.77 1017.83,252.77 1018.64,252.78 1019.44,252.64 1020.24,252.79 1021.04,252.79 1021.85,253.53 1022.65,253.68 1023.45,253.75 1024.25,252.79 1025.06,252.80 1025.86,252.66 1026.66,252.81 1027.46,253.69 1028.27,253.76 1029.07,252.67 1029.87,252.81 1030.67,252.83 1031.48,252.82 1032.28,252.68 1033.08,253.73 1033.88,253.79 1034.69,252.83 1035.49,252.83 1036.29,252.85 1037.09,252.84 1037.90,35.00 1038.70,165.77 1039.50,187.26 1040.30,213.46 1041.11,232.22 1041.91,235.31 1042.71,235.04 1043.52,234.20 1044.32,235.62 1045.12,234.84 1045.92,234.45 1046.73,235.82 1047.53,237.32 1048.33,235.85 1049.13,236.84 1049.94,236.48 1050.74,237.34 1051.54,237.25 1052.34,237.30 1053.15,237.88 1053.95,237.53 1054.75,237.99 1055.55,237.67 1056.36,238.10 1057.16,237.76 1057.96,238.26 1058.76,237.83 1059.57,238.31 1060.37,238.00 1061.17,238.05 1061.97,238.07 1062.78,238.55 1063.58,238.24 1064.38,238.55 1065.18,238.17 1065.99,239.08 1066.79,239.11 1067.59,239.14 1068.39,238.50 1069.20,238.32 1070.00,239.19"/>
  <circle cx="70.00" cy="120.75" r="3.5" fill="#9b2c2c"/>
  <circle cx="1070.00" cy="239.19" r="3.5" fill="#2f855a"/>
  <text x="70" y="27" font-size="11" fill="#9b2c2c">start: 0.3007</text>
  <text x="1070" y="27" text-anchor="end" font-size="11" fill="#2f855a">end: 0.2009</text>
  <text x="550.0" y="350" text-anchor="middle" font-size="12" fill="#1e2a38">optimization step</text>
  <text x="18" y="180.0" transform="rotate(-90 18,180.0)" text-anchor="middle" font-size="12" fill="#1e2a38">energy</text>
</svg>