<?xml version="1.0" encoding="utf-8" standalone="no"?>
<!DOCTYPE svg PUBLIC "-//W3C//DTD SVG 1.1//EN"
  "http://www.w3.org/Graphics/SVG/1.1/DTD/svg11.dtd">
<svg xmlns:xlink="http://www.w3.org/1999/xlink" width="756pt" height="316.8pt" viewBox="0 0 756 316.8" xmlns="http://www.w3.org/2000/svg" version="1.1">
 <metadata>
  <rdf:RDF xmlns:dc="http://purl.org/dc/elements/1.1/" xmlns:cc="http://creativecommons.org/ns#" xmlns:rdf="http://www.w3.org/1999/02/22-rdf-syntax-ns#">
   <cc:Work>
    <dc:type rdf:resource="http://purl.org/dc/dcmitype/StillImage"/>
    <dc:date>2026-05-04T22:00:48.283594</dc:date>
    <dc:format>image/svg+xml</dc:format>
    <dc:creator>
     <cc:Agent>
      <dc:title>Matplotlib v3.10.8, https://matplotlib.org/</dc:title>
     </cc:Agent>
    </dc:creator>
   </cc:Work>
  </rdf:RDF>
 </metadata>
 <defs>
  <style type="text/css">*{stroke-linejoin: round; stroke-linecap: butt}</style>
 </defs>
 <g id="figure_1">
  <g id="patch_1">
   <path d="M 0 316.8 
L 756 316.8 
L 756 0 
L 0 0 
z
" style="fill: #ffffff"/>
  </g>
  <g id="axes_1">
   <g id="patch_2">
    <path d="M 50.137685 274.84 
L 745.2 274.84 
L 745.2 26.88 
L 50.137685 26.88 
z
" style="fill: #ffffff"/>
   </g>
   <g id="matplotlib.axis_1">
    <g id="xtick_1">
     <g id="line2d_1">
      <path d="M 81.731426 274.84 
L 81.731426 26.88 
" clip-path="url(#paa39b83f3f)" style="fill: none; stroke: #b0b0b0; stroke-opacity: 0.25; stroke-width: 0.8; stroke-linecap: square"/>
     </g>
     <g id="line2d_2">
      <defs>
       <path id="m3a60b36820" d="M 0 0 
L 0 3.5 
" style="stroke: #000000; stroke-width: 0.8"/>
      </defs>
      <g>
       <use xlink:href="#m3a60b36820" x="81.731426" y="274.84" style="stroke: #000000; stroke-width: 0.8"/>
      </g>
     </g>
     <g id="text_1">
      <!-- 0 -->
      <g transform="translate(78.550176 289.438438) scale(0.1 -0.1)">
       <defs>
        <path id="DejaVuSans-30" d="M 2034 4250 
Q 1547 4250 1301 3770 
Q 1056 3291 1056 2328 
Q 1056 1369 1301 889 
Q 1547 409 2034 409 
Q 2525 409 2770 889 
Q 3016 1369 3016 2328 
Q 3016 3291 2770 3770 
Q 2525 4250 2034 4250 
z
M 2034 4750 
Q 2819 4750 3233 4129 
Q 3647 3509 3647 2328 
Q 3647 1150 3233 529 
Q 2819 -91 2034 -91 
Q 1250 -91 836 529 
Q 422 1150 422 2328 
Q 422 3509 836 4129 
Q 1250 4750 2034 4750 
z
" transform="scale(0.015625)"/>
       </defs>
       <use xlink:href="#DejaVuSans-30"/>
      </g>
     </g>
    </g>
    <g id="xtick_2">
     <g id="line2d_3">
      <path d="M 208.106393 274.84 
L 208.106393 26.88 
" clip-path="url(#paa39b83f3f)" style="fill: none; stroke: #b0b0b0; stroke-opacity: 0.25; stroke-width: 0.8; stroke-linecap: square"/>
     </g>
     <g id="line2d_4">
      <g>
       <use xlink:href="#m3a60b36820" x="208.106393" y="274.84" style="stroke: #000000; stroke-width: 0.8"/>
      </g>
     </g>
     <g id="text_2">
      <!-- 100 -->
      <g transform="translate(198.562643 289.438438) scale(0.1 -0.1)">
       <defs>
        <path id="DejaVuSans-31" d="M 794 531 
L 1825 531 
L 1825 4091 
L 703 3866 
L 703 4441 
L 1819 4666 
L 2450 4666 
L 2450 531 
L 3481 531 
L 3481 0 
L 794 0 
L 794 531 
z
" transform="scale(0.015625)"/>
       </defs>
       <use xlink:href="#DejaVuSans-31"/>
       <use xlink:href="#DejaVuSans-30" transform="translate(63.623047 0)"/>
       <use xlink:href="#DejaVuSans-30" transform="translate(127.246094 0)"/>
      </g>
     </g>
    </g>
    <g id="xtick_3">
     <g id="line2d_5">
      <path d="M 334.481359 274.84 
L 334.481359 26.88 
" clip-path="url(#paa39b83f3f)" style="fill: none; stroke: #b0b0b0; stroke-opacity: 0.25; stroke-width: 0.8; stroke-linecap: square"/>
     </g>
     <g id="line2d_6">
      <g>
       <use xlink:href="#m3a60b36820" x="334.481359" y="274.84" style="stroke: #000000; stroke-width: 0.8"/>
      </g>
     </g>
     <g id="text_3">
      <!-- 200 -->
      <g transform="translate(324.937609 289.438438) scale(0.1 -0.1)">
       <defs>
        <path id="DejaVuSans-32" d="M 1228 531 
L 3431 531 
L 3431 0 
L 469 0 
L 469 531 
Q 828 903 1448 1529 
Q 2069 2156 2228 2338 
Q 2531 2678 2651 2914 
Q 2772 3150 2772 3378 
Q 2772 3750 2511 3984 
Q 2250 4219 1831 4219 
Q 1534 4219 1204 4116 
Q 875 4013 500 3803 
L 500 4441 
Q 881 4594 1212 4672 
Q 1544 4750 1819 4750 
Q 2544 4750 2975 4387 
Q 3406 4025 3406 3419 
Q 3406 3131 3298 2873 
Q 3191 2616 2906 2266 
Q 2828 2175 2409 1742 
Q 1991 1309 1228 531 
z
" transform="scale(0.015625)"/>
       </defs>
       <use xlink:href="#DejaVuSans-32"/>
       <use xlink:href="#DejaVuSans-30" transform="translate(63.623047 0)"/>
       <use xlink:href="#DejaVuSans-30" transform="translate(127.246094 0)"/>
      </g>
     </g>
    </g>
    <g id="xtick_4">
     <g id="line2d_7">
      <path d="M 460.856326 274.84 
L 460.856326 26.88 
" clip-path="url(#paa39b83f3f)" style="fill: none; stroke: #b0b0b0; stroke-opacity: 0.25; stroke-width: 0.8; stroke-linecap: square"/>
     </g>
     <g id="line2d_8">
      <g>
       <use xlink:href="#m3a60b36820" x="460.856326" y="274.84" style="stroke: #000000; stroke-width: 0.8"/>
      </g>
     </g>
     <g id="text_4">
      <!-- 300 -->
      <g transform="translate(451.312576 289.438438) scale(0.1 -0.1)">
       <defs>
        <path id="DejaVuSans-33" d="M 2597 2516 
Q 3050 2419 3304 2112 
Q 3559 1806 3559 1356 
Q 3559 666 3084 287 
Q 2609 -91 1734 -91 
Q 1441 -91 1130 -33 
Q 819 25 488 141 
L 488 750 
Q 750 597 1062 519 
Q 1375 441 1716 441 
Q 2309 441 2620 675 
Q 2931 909 2931 1356 
Q 2931 1769 2642 2001 
Q 2353 2234 1838 2234 
L 1294 2234 
L 1294 2753 
L 1863 2753 
Q 2328 2753 2575 2939 
Q 2822 3125 2822 3475 
Q 2822 3834 2567 4026 
Q 2313 4219 1838 4219 
Q 1578 4219 1281 4162 
Q 984 4106 628 3988 
L 628 4550 
Q 988 4650 1302 4700 
Q 1616 4750 1894 4750 
Q 2613 4750 3031 4423 
Q 3450 4097 3450 3541 
Q 3450 3153 3228 2886 
Q 3006 2619 2597 2516 
z
" transform="scale(0.015625)"/>
       </defs>
       <use xlink:href="#DejaVuSans-33"/>
       <use xlink:href="#DejaVuSans-30" transform="translate(63.623047 0)"/>
       <use xlink:href="#DejaVuSans-30" transform="translate(127.246094 0)"/>
      </g>
     </g>
    </g>
    <g id="xtick_5">
     <g id="line2d_9">
      <path d="M 587.231292 274.84 
L 587.231292 26.88 
" clip-path="url(#paa39b83f3f)" style="fill: none; stroke: #b0b0b0; stroke-opacity: 0.25; stroke-width: 0.8; stroke-linecap: square"/>
     </g>
     <g id="line2d_10">
      <g>
       <use xlink:href="#m3a60b36820" x="587.231292" y="274.84" style="stroke: #000000; stroke-width: 0.8"/>
      </g>
     </g>
     <g id="text_5">
      <!-- 400 -->
      <g transform="translate(577.687542 289.438438) scale(0.1 -0.1)">
       <defs>
        <path id="DejaVuSans-34" d="M 2419 4116 
L 825 1625 
L 2419 1625 
L 2419 4116 
z
M 2253 4666 
L 3047 4666 
L 3047 1625 
L 3713 1625 
L 3713 1100 
L 3047 1100 
L 3047 0 
L 2419 0 
L 2419 1100 
L 313 1100 
L 313 1709 
L 2253 4666 
z
" transform="scale(0.015625)"/>
       </defs>
       <use xlink:href="#DejaVuSans-34"/>
       <use xlink:href="#DejaVuSans-30" transform="translate(63.623047 0)"/>
       <use xlink:href="#DejaVuSans-30" transform="translate(127.246094 0)"/>
      </g>
     </g>
    </g>
    <g id="xtick_6">
     <g id="line2d_11">
      <path d="M 713.606258 274.84 
L 713.606258 26.88 
" clip-path="url(#paa39b83f3f)" style="fill: none; stroke: #b0b0b0; stroke-opacity: 0.25; stroke-width: 0.8; stroke-linecap: square"/>
     </g>
     <g id="line2d_12">
      <g>
       <use xlink:href="#m3a60b36820" x="713.606258" y="274.84" style="stroke: #000000; stroke-width: 0.8"/>
      </g>
     </g>
     <g id="text_6">
      <!-- 500 -->
      <g transform="translate(704.062508 289.438438) scale(0.1 -0.1)">
       <defs>
        <path id="DejaVuSans-35" d="M 691 4666 
L 3169 4666 
L 3169 4134 
L 1269 4134 
L 1269 2991 
Q 1406 3038 1543 3061 
Q 1681 3084 1819 3084 
Q 2600 3084 3056 2656 
Q 3513 2228 3513 1497 
Q 3513 744 3044 326 
Q 2575 -91 1722 -91 
Q 1428 -91 1123 -41 
Q 819 9 494 109 
L 494 744 
Q 775 591 1075 516 
Q 1375 441 1709 441 
Q 2250 441 2565 725 
Q 2881 1009 2881 1497 
Q 2881 1984 2565 2268 
Q 2250 2553 1709 2553 
Q 1456 2553 1204 2497 
Q 953 2441 691 2322 
L 691 4666 
z
" transform="scale(0.015625)"/>
       </defs>
       <use xlink:href="#DejaVuSans-35"/>
       <use xlink:href="#DejaVuSans-30" transform="translate(63.623047 0)"/>
       <use xlink:href="#DejaVuSans-30" transform="translate(127.246094 0)"/>
      </g>
     </g>
    </g>
    <g id="text_7">
     <!-- iteration -->
     <g transform="translate(376.546186 303.116562) scale(0.1 -0.1)">
      <defs>
       <path id="DejaVuSans-69" d="M 603 3500 
L 1178 3500 
L 1178 0 
L 603 0 
L 603 3500 
z
M 603 4863 
L 1178 4863 
L 1178 4134 
L 603 4134 
L 603 4863 
z
" transform="scale(0.015625)"/>
       <path id="DejaVuSans-74" d="M 1172 4494 
L 1172 3500 
L 2356 3500 
L 2356 3053 
L 1172 3053 
L 1172 1153 
Q 1172 725 1289 603 
Q 1406 481 1766 481 
L 2356 481 
L 2356 0 
L 1766 0 
Q 1100 0 847 248 
Q 594 497 594 1153 
L 594 3053 
L 172 3053 
L 172 3500 
L 594 3500 
L 594 4494 
L 1172 4494 
z
" transform="scale(0.015625)"/>
       <path id="DejaVuSans-65" d="M 3597 1894 
L 3597 1613 
L 953 1613 
Q 991 1019 1311 708 
Q 1631 397 2203 397 
Q 2534 397 2845 478 
Q 3156 559 3463 722 
L 3463 178 
Q 3153 47 2828 -22 
Q 2503 -91 2169 -91 
Q 1331 -91 842 396 
Q 353 884 353 1716 
Q 353 2575 817 3079 
Q 1281 3584 2069 3584 
Q 2775 3584 3186 3129 
Q 3597 2675 3597 1894 
z
M 3022 2063 
Q 3016 2534 2758 2815 
Q 2500 3097 2075 3097 
Q 1594 3097 1305 2825 
Q 1016 2553 972 2059 
L 3022 2063 
z
" transform="scale(0.015625)"/>
       <path id="DejaVuSans-72" d="M 2631 2963 
Q 2534 3019 2420 3045 
Q 2306 3072 2169 3072 
Q 1681 3072 1420 2755 
Q 1159 2438 1159 1844 
L 1159 0 
L 581 0 
L 581 3500 
L 1159 3500 
L 1159 2956 
Q 1341 3275 1631 3429 
Q 1922 3584 2338 3584 
Q 2397 3584 2469 3576 
Q 2541 3569 2628 3553 
L 2631 2963 
z
" transform="scale(0.015625)"/>
       <path id="DejaVuSans-61" d="M 2194 1759 
Q 1497 1759 1228 1600 
Q 959 1441 959 1056 
Q 959 750 1161 570 
Q 1363 391 1709 391 
Q 2188 391 2477 730 
Q 2766 1069 2766 1631 
L 2766 1759 
L 2194 1759 
z
M 3341 1997 
L 3341 0 
L 2766 0 
L 2766 531 
Q 2569 213 2275 61 
Q 1981 -91 1556 -91 
Q 1019 -91 701 211 
Q 384 513 384 1019 
Q 384 1609 779 1909 
Q 1175 2209 1959 2209 
L 2766 2209 
L 2766 2266 
Q 2766 2663 2505 2880 
Q 2244 3097 1772 3097 
Q 1472 3097 1187 3025 
Q 903 2953 641 2809 
L 641 3341 
Q 956 3463 1253 3523 
Q 1550 3584 1831 3584 
Q 2591 3584 2966 3190 
Q 3341 2797 3341 1997 
z
" transform="scale(0.015625)"/>
       <path id="DejaVuSans-6f" d="M 1959 3097 
Q 1497 3097 1228 2736 
Q 959 2375 959 1747 
Q 959 1119 1226 758 
Q 1494 397 1959 397 
Q 2419 397 2687 759 
Q 2956 1122 2956 1747 
Q 2956 2369 2687 2733 
Q 2419 3097 1959 3097 
z
M 1959 3584 
Q 2709 3584 3137 3096 
Q 3566 2609 3566 1747 
Q 3566 888 3137 398 
Q 2709 -91 1959 -91 
Q 1206 -91 779 398 
Q 353 888 353 1747 
Q 353 2609 779 3096 
Q 1206 3584 1959 3584 
z
" transform="scale(0.015625)"/>
       <path id="DejaVuSans-6e" d="M 3513 2113 
L 3513 0 
L 2938 0 
L 2938 2094 
Q 2938 2591 2744 2837 
Q 2550 3084 2163 3084 
Q 1697 3084 1428 2787 
Q 1159 2491 1159 1978 
L 1159 0 
L 581 0 
L 581 3500 
L 1159 3500 
L 1159 2956 
Q 1366 3272 1645 3428 
Q 1925 3584 2291 3584 
Q 2894 3584 3203 3211 
Q 3513 2838 3513 2113 
z
" transform="scale(0.015625)"/>
      </defs>
      <use xlink:href="#DejaVuSans-69"/>
      <use xlink:href="#DejaVuSans-74" transform="translate(27.783203 0)"/>
      <use xlink:href="#DejaVuSans-65" transform="translate(66.992188 0)"/>
      <use xlink:href="#DejaVuSans-72" transform="translate(128.515625 0)"/>
      <use xlink:href="#DejaVuSans-61" transform="translate(169.628906 0)"/>
      <use xlink:href="#DejaVuSans-74" transform="translate(230.908203 0)"/>
      <use xlink:href="#DejaVuSans-69" transform="translate(270.117188 0)"/>
      <use xlink:href="#DejaVuSans-6f" transform="translate(297.900391 0)"/>
      <use xlink:href="#DejaVuSans-6e" transform="translate(359.082031 0)"/>
     </g>
    </g>
   </g>
   <g id="matplotlib.axis_2">
    <g id="ytick_1">
     <g id="line2d_13">
      <path d="M 50.137685 237.13829 
L 745.2 237.13829 
" clip-path="url(#paa39b83f3f)" style="fill: none; stroke: #b0b0b0; stroke-opacity: 0.25; stroke-width: 0.8; stroke-linecap: square"/>
     </g>
     <g id="line2d_14">
      <defs>
       <path id="mee7ae1db51" d="M 0 0 
L -3.5 0 
" style="stroke: #000000; stroke-width: 0.8"/>
      </defs>
      <g>
       <use xlink:href="#mee7ae1db51" x="50.137685" y="237.13829" style="stroke: #000000; stroke-width: 0.8"/>
      </g>
     </g>
     <g id="text_8">
      <!-- $\mathdefault{10^{2}}$ -->
      <g transform="translate(25.537685 240.937509) scale(0.1 -0.1)">
       <use xlink:href="#DejaVuSans-31" transform="translate(0 0.765625)"/>
       <use xlink:href="#DejaVuSans-30" transform="translate(63.623047 0.765625)"/>
       <use xlink:href="#DejaVuSans-32" transform="translate(128.203125 39.046875) scale(0.7)"/>
      </g>
     </g>
    </g>
    <g id="ytick_2">
     <g id="line2d_15">
      <path d="M 50.137685 185.395758 
L 745.2 185.395758 
" clip-path="url(#paa39b83f3f)" style="fill: none; stroke: #b0b0b0; stroke-opacity: 0.25; stroke-width: 0.8; stroke-linecap: square"/>
     </g>
     <g id="line2d_16">
      <g>
       <use xlink:href="#mee7ae1db51" x="50.137685" y="185.395758" style="stroke: #000000; stroke-width: 0.8"/>
      </g>
     </g>
     <g id="text_9">
      <!-- $\mathdefault{10^{3}}$ -->
      <g transform="translate(25.537685 189.194977) scale(0.1 -0.1)">
       <use xlink:href="#DejaVuSans-31" transform="translate(0 0.765625)"/>
       <use xlink:href="#DejaVuSans-30" transform="translate(63.623047 0.765625)"/>
       <use xlink:href="#DejaVuSans-33" transform="translate(128.203125 39.046875) scale(0.7)"/>
      </g>
     </g>
    </g>
    <g id="ytick_3">
     <g id="line2d_17">
      <path d="M 50.137685 133.653226 
L 745.2 133.653226 
" clip-path="url(#paa39b83f3f)" style="fill: none; stroke: #b0b0b0; stroke-opacity: 0.25; stroke-width: 0.8; stroke-linecap: square"/>
     </g>
     <g id="line2d_18">
      <g>
       <use xlink:href="#mee7ae1db51" x="50.137685" y="133.653226" style="stroke: #000000; stroke-width: 0.8"/>
      </g>
     </g>
     <g id="text_10">
      <!-- $\mathdefault{10^{4}}$ -->
      <g transform="translate(25.537685 137.452444) scale(0.1 -0.1)">
       <use xlink:href="#DejaVuSans-31" transform="translate(0 0.684375)"/>
       <use xlink:href="#DejaVuSans-30" transform="translate(63.623047 0.684375)"/>
       <use xlink:href="#DejaVuSans-34" transform="translate(128.203125 38.965625) scale(0.7)"/>
      </g>
     </g>
    </g>
    <g id="ytick_4">
     <g id="line2d_19">
      <path d="M 50.137685 81.910693 
L 745.2 81.910693 
" clip-path="url(#paa39b83f3f)" style="fill: none; stroke: #b0b0b0; stroke-opacity: 0.25; stroke-width: 0.8; stroke-linecap: square"/>
     </g>
     <g id="line2d_20">
      <g>
       <use xlink:href="#mee7ae1db51" x="50.137685" y="81.910693" style="stroke: #000000; stroke-width: 0.8"/>
      </g>
     </g>
     <g id="text_11">
      <!-- $\mathdefault{10^{5}}$ -->
      <g transform="translate(25.537685 85.709912) scale(0.1 -0.1)">
       <use xlink:href="#DejaVuSans-31" transform="translate(0 0.684375)"/>
       <use xlink:href="#DejaVuSans-30" transform="translate(63.623047 0.684375)"/>
       <use xlink:href="#DejaVuSans-35" transform="translate(128.203125 38.965625) scale(0.7)"/>
      </g>
     </g>
    </g>
    <g id="ytick_5">
     <g id="line2d_21">
      <path d="M 50.137685 30.168161 
L 745.2 30.168161 
" clip-path="url(#paa39b83f3f)" style="fill: none; stroke: #b0b0b0; stroke-opacity: 0.25; stroke-width: 0.8; stroke-linecap: square"/>
     </g>
     <g id="line2d_22">
      <g>
       <use xlink:href="#mee7ae1db51" x="50.137685" y="30.168161" style="stroke: #000000; stroke-width: 0.8"/>
      </g>
     </g>
     <g id="text_12">
      <!-- $\mathdefault{10^{6}}$ -->
      <g transform="translate(25.537685 33.96738) scale(0.1 -0.1)">
       <defs>
        <path id="DejaVuSans-36" d="M 2113 2584 
Q 1688 2584 1439 2293 
Q 1191 2003 1191 1497 
Q 1191 994 1439 701 
Q 1688 409 2113 409 
Q 2538 409 2786 701 
Q 3034 994 3034 1497 
Q 3034 2003 2786 2293 
Q 2538 2584 2113 2584 
z
M 3366 4563 
L 3366 3988 
Q 3128 4100 2886 4159 
Q 2644 4219 2406 4219 
Q 1781 4219 1451 3797 
Q 1122 3375 1075 2522 
Q 1259 2794 1537 2939 
Q 1816 3084 2150 3084 
Q 2853 3084 3261 2657 
Q 3669 2231 3669 1497 
Q 3669 778 3244 343 
Q 2819 -91 2113 -91 
Q 1303 -91 875 529 
Q 447 1150 447 2328 
Q 447 3434 972 4092 
Q 1497 4750 2381 4750 
Q 2619 4750 2861 4703 
Q 3103 4656 3366 4563 
z
" transform="scale(0.015625)"/>
       </defs>
       <use xlink:href="#DejaVuSans-31" transform="translate(0 0.765625)"/>
       <use xlink:href="#DejaVuSans-30" transform="translate(63.623047 0.765625)"/>
       <use xlink:href="#DejaVuSans-36" transform="translate(128.203125 39.046875) scale(0.7)"/>
      </g>
     </g>
    </g>
    <g id="ytick_6">
     <g id="line2d_23">
      <defs>
       <path id="mc3cf093767" d="M 0 0 
L -2 0 
" style="stroke: #000000; stroke-width: 0.6"/>
      </defs>
      <g>
       <use xlink:href="#mc3cf093767" x="50.137685" y="273.304768" style="stroke: #000000; stroke-width: 0.6"/>
      </g>
     </g>
    </g>
    <g id="ytick_7">
     <g id="line2d_24">
      <g>
       <use xlink:href="#mc3cf093767" x="50.137685" y="264.193361" style="stroke: #000000; stroke-width: 0.6"/>
      </g>
     </g>
    </g>
    <g id="ytick_8">
     <g id="line2d_25">
      <g>
       <use xlink:href="#mc3cf093767" x="50.137685" y="257.728714" style="stroke: #000000; stroke-width: 0.6"/>
      </g>
     </g>
    </g>
    <g id="ytick_9">
     <g id="line2d_26">
      <g>
       <use xlink:href="#mc3cf093767" x="50.137685" y="252.714345" style="stroke: #000000; stroke-width: 0.6"/>
      </g>
     </g>
    </g>
    <g id="ytick_10">
     <g id="line2d_27">
      <g>
       <use xlink:href="#mc3cf093767" x="50.137685" y="248.617307" style="stroke: #000000; stroke-width: 0.6"/>
      </g>
     </g>
    </g>
    <g id="ytick_11">
     <g id="line2d_28">
      <g>
       <use xlink:href="#mc3cf093767" x="50.137685" y="245.15331" style="stroke: #000000; stroke-width: 0.6"/>
      </g>
     </g>
    </g>
    <g id="ytick_12">
     <g id="line2d_29">
      <g>
       <use xlink:href="#mc3cf093767" x="50.137685" y="242.15266" style="stroke: #000000; stroke-width: 0.6"/>
      </g>
     </g>
    </g>
    <g id="ytick_13">
     <g id="line2d_30">
      <g>
       <use xlink:href="#mc3cf093767" x="50.137685" y="239.505899" style="stroke: #000000; stroke-width: 0.6"/>
      </g>
     </g>
    </g>
    <g id="ytick_14">
     <g id="line2d_31">
      <g>
       <use xlink:href="#mc3cf093767" x="50.137685" y="221.562236" style="stroke: #000000; stroke-width: 0.6"/>
      </g>
     </g>
    </g>
    <g id="ytick_15">
     <g id="line2d_32">
      <g>
       <use xlink:href="#mc3cf093767" x="50.137685" y="212.450828" style="stroke: #000000; stroke-width: 0.6"/>
      </g>
     </g>
    </g>
    <g id="ytick_16">
     <g id="line2d_33">
      <g>
       <use xlink:href="#mc3cf093767" x="50.137685" y="205.986182" style="stroke: #000000; stroke-width: 0.6"/>
      </g>
     </g>
    </g>
    <g id="ytick_17">
     <g id="line2d_34">
      <g>
       <use xlink:href="#mc3cf093767" x="50.137685" y="200.971812" style="stroke: #000000; stroke-width: 0.6"/>
      </g>
     </g>
    </g>
    <g id="ytick_18">
     <g id="line2d_35">
      <g>
       <use xlink:href="#mc3cf093767" x="50.137685" y="196.874774" style="stroke: #000000; stroke-width: 0.6"/>
      </g>
     </g>
    </g>
    <g id="ytick_19">
     <g id="line2d_36">
      <g>
       <use xlink:href="#mc3cf093767" x="50.137685" y="193.410778" style="stroke: #000000; stroke-width: 0.6"/>
      </g>
     </g>
    </g>
    <g id="ytick_20">
     <g id="line2d_37">
      <g>
       <use xlink:href="#mc3cf093767" x="50.137685" y="190.410128" style="stroke: #000000; stroke-width: 0.6"/>
      </g>
     </g>
    </g>
    <g id="ytick_21">
     <g id="line2d_38">
      <g>
       <use xlink:href="#mc3cf093767" x="50.137685" y="187.763367" style="stroke: #000000; stroke-width: 0.6"/>
      </g>
     </g>
    </g>
    <g id="ytick_22">
     <g id="line2d_39">
      <g>
       <use xlink:href="#mc3cf093767" x="50.137685" y="169.819704" style="stroke: #000000; stroke-width: 0.6"/>
      </g>
     </g>
    </g>
    <g id="ytick_23">
     <g id="line2d_40">
      <g>
       <use xlink:href="#mc3cf093767" x="50.137685" y="160.708296" style="stroke: #000000; stroke-width: 0.6"/>
      </g>
     </g>
    </g>
    <g id="ytick_24">
     <g id="line2d_41">
      <g>
       <use xlink:href="#mc3cf093767" x="50.137685" y="154.243649" style="stroke: #000000; stroke-width: 0.6"/>
      </g>
     </g>
    </g>
    <g id="ytick_25">
     <g id="line2d_42">
      <g>
       <use xlink:href="#mc3cf093767" x="50.137685" y="149.22928" style="stroke: #000000; stroke-width: 0.6"/>
      </g>
     </g>
    </g>
    <g id="ytick_26">
     <g id="line2d_43">
      <g>
       <use xlink:href="#mc3cf093767" x="50.137685" y="145.132242" style="stroke: #000000; stroke-width: 0.6"/>
      </g>
     </g>
    </g>
    <g id="ytick_27">
     <g id="line2d_44">
      <g>
       <use xlink:href="#mc3cf093767" x="50.137685" y="141.668245" style="stroke: #000000; stroke-width: 0.6"/>
      </g>
     </g>
    </g>
    <g id="ytick_28">
     <g id="line2d_45">
      <g>
       <use xlink:href="#mc3cf093767" x="50.137685" y="138.667595" style="stroke: #000000; stroke-width: 0.6"/>
      </g>
     </g>
    </g>
    <g id="ytick_29">
     <g id="line2d_46">
      <g>
       <use xlink:href="#mc3cf093767" x="50.137685" y="136.020834" style="stroke: #000000; stroke-width: 0.6"/>
      </g>
     </g>
    </g>
    <g id="ytick_30">
     <g id="line2d_47">
      <g>
       <use xlink:href="#mc3cf093767" x="50.137685" y="118.077171" style="stroke: #000000; stroke-width: 0.6"/>
      </g>
     </g>
    </g>
    <g id="ytick_31">
     <g id="line2d_48">
      <g>
       <use xlink:href="#mc3cf093767" x="50.137685" y="108.965764" style="stroke: #000000; stroke-width: 0.6"/>
      </g>
     </g>
    </g>
    <g id="ytick_32">
     <g id="line2d_49">
      <g>
       <use xlink:href="#mc3cf093767" x="50.137685" y="102.501117" style="stroke: #000000; stroke-width: 0.6"/>
      </g>
     </g>
    </g>
    <g id="ytick_33">
     <g id="line2d_50">
      <g>
       <use xlink:href="#mc3cf093767" x="50.137685" y="97.486748" style="stroke: #000000; stroke-width: 0.6"/>
      </g>
     </g>
    </g>
    <g id="ytick_34">
     <g id="line2d_51">
      <g>
       <use xlink:href="#mc3cf093767" x="50.137685" y="93.389709" style="stroke: #000000; stroke-width: 0.6"/>
      </g>
     </g>
    </g>
    <g id="ytick_35">
     <g id="line2d_52">
      <g>
       <use xlink:href="#mc3cf093767" x="50.137685" y="89.925713" style="stroke: #000000; stroke-width: 0.6"/>
      </g>
     </g>
    </g>
    <g id="ytick_36">
     <g id="line2d_53">
      <g>
       <use xlink:href="#mc3cf093767" x="50.137685" y="86.925063" style="stroke: #000000; stroke-width: 0.6"/>
      </g>
     </g>
    </g>
    <g id="ytick_37">
     <g id="line2d_54">
      <g>
       <use xlink:href="#mc3cf093767" x="50.137685" y="84.278302" style="stroke: #000000; stroke-width: 0.6"/>
      </g>
     </g>
    </g>
    <g id="ytick_38">
     <g id="line2d_55">
      <g>
       <use xlink:href="#mc3cf093767" x="50.137685" y="66.334639" style="stroke: #000000; stroke-width: 0.6"/>
      </g>
     </g>
    </g>
    <g id="ytick_39">
     <g id="line2d_56">
      <g>
       <use xlink:href="#mc3cf093767" x="50.137685" y="57.223231" style="stroke: #000000; stroke-width: 0.6"/>
      </g>
     </g>
    </g>
    <g id="ytick_40">
     <g id="line2d_57">
      <g>
       <use xlink:href="#mc3cf093767" x="50.137685" y="50.758585" style="stroke: #000000; stroke-width: 0.6"/>
      </g>
     </g>
    </g>
    <g id="ytick_41">
     <g id="line2d_58">
      <g>
       <use xlink:href="#mc3cf093767" x="50.137685" y="45.744215" style="stroke: #000000; stroke-width: 0.6"/>
      </g>
     </g>
    </g>
    <g id="ytick_42">
     <g id="line2d_59">
      <g>
       <use xlink:href="#mc3cf093767" x="50.137685" y="41.647177" style="stroke: #000000; stroke-width: 0.6"/>
      </g>
     </g>
    </g>
    <g id="ytick_43">
     <g id="line2d_60">
      <g>
       <use xlink:href="#mc3cf093767" x="50.137685" y="38.183181" style="stroke: #000000; stroke-width: 0.6"/>
      </g>
     </g>
    </g>
    <g id="ytick_44">
     <g id="line2d_61">
      <g>
       <use xlink:href="#mc3cf093767" x="50.137685" y="35.18253" style="stroke: #000000; stroke-width: 0.6"/>
      </g>
     </g>
    </g>
    <g id="ytick_45">
     <g id="line2d_62">
      <g>
       <use xlink:href="#mc3cf093767" x="50.137685" y="32.535769" style="stroke: #000000; stroke-width: 0.6"/>
      </g>
     </g>
    </g>
    <g id="text_13">
     <!-- tangent-point energy (log scale) -->
     <g transform="translate(19.457997 231.586563) rotate(-90) scale(0.1 -0.1)">
      <defs>
       <path id="DejaVuSans-67" d="M 2906 1791 
Q 2906 2416 2648 2759 
Q 2391 3103 1925 3103 
Q 1463 3103 1205 2759 
Q 947 2416 947 1791 
Q 947 1169 1205 825 
Q 1463 481 1925 481 
Q 2391 481 2648 825 
Q 2906 1169 2906 1791 
z
M 3481 434 
Q 3481 -459 3084 -895 
Q 2688 -1331 1869 -1331 
Q 1566 -1331 1297 -1286 
Q 1028 -1241 775 -1147 
L 775 -588 
Q 1028 -725 1275 -790 
Q 1522 -856 1778 -856 
Q 2344 -856 2625 -561 
Q 2906 -266 2906 331 
L 2906 616 
Q 2728 306 2450 153 
Q 2172 0 1784 0 
Q 1141 0 747 490 
Q 353 981 353 1791 
Q 353 2603 747 3093 
Q 1141 3584 1784 3584 
Q 2172 3584 2450 3431 
Q 2728 3278 2906 2969 
L 2906 3500 
L 3481 3500 
L 3481 434 
z
" transform="scale(0.015625)"/>
       <path id="DejaVuSans-2d" d="M 313 2009 
L 1997 2009 
L 1997 1497 
L 313 1497 
L 313 2009 
z
" transform="scale(0.015625)"/>
       <path id="DejaVuSans-70" d="M 1159 525 
L 1159 -1331 
L 581 -1331 
L 581 3500 
L 1159 3500 
L 1159 2969 
Q 1341 3281 1617 3432 
Q 1894 3584 2278 3584 
Q 2916 3584 3314 3078 
Q 3713 2572 3713 1747 
Q 3713 922 3314 415 
Q 2916 -91 2278 -91 
Q 1894 -91 1617 61 
Q 1341 213 1159 525 
z
M 3116 1747 
Q 3116 2381 2855 2742 
Q 2594 3103 2138 3103 
Q 1681 3103 1420 2742 
Q 1159 2381 1159 1747 
Q 1159 1113 1420 752 
Q 1681 391 2138 391 
Q 2594 391 2855 752 
Q 3116 1113 3116 1747 
z
" transform="scale(0.015625)"/>
       <path id="DejaVuSans-20" transform="scale(0.015625)"/>
       <path id="DejaVuSans-79" d="M 2059 -325 
Q 1816 -950 1584 -1140 
Q 1353 -1331 966 -1331 
L 506 -1331 
L 506 -850 
L 844 -850 
Q 1081 -850 1212 -737 
Q 1344 -625 1503 -206 
L 1606 56 
L 191 3500 
L 800 3500 
L 1894 763 
L 2988 3500 
L 3597 3500 
L 2059 -325 
z
" transform="scale(0.015625)"/>
       <path id="DejaVuSans-28" d="M 1984 4856 
Q 1566 4138 1362 3434 
Q 1159 2731 1159 2009 
Q 1159 1288 1364 580 
Q 1569 -128 1984 -844 
L 1484 -844 
Q 1016 -109 783 600 
Q 550 1309 550 2009 
Q 550 2706 781 3412 
Q 1013 4119 1484 4856 
L 1984 4856 
z
" transform="scale(0.015625)"/>
       <path id="DejaVuSans-6c" d="M 603 4863 
L 1178 4863 
L 1178 0 
L 603 0 
L 603 4863 
z
" transform="scale(0.015625)"/>
       <path id="DejaVuSans-73" d="M 2834 3397 
L 2834 2853 
Q 2591 2978 2328 3040 
Q 2066 3103 1784 3103 
Q 1356 3103 1142 2972 
Q 928 2841 928 2578 
Q 928 2378 1081 2264 
Q 1234 2150 1697 2047 
L 1894 2003 
Q 2506 1872 2764 1633 
Q 3022 1394 3022 966 
Q 3022 478 2636 193 
Q 2250 -91 1575 -91 
Q 1294 -91 989 -36 
Q 684 19 347 128 
L 347 722 
Q 666 556 975 473 
Q 1284 391 1588 391 
Q 1994 391 2212 530 
Q 2431 669 2431 922 
Q 2431 1156 2273 1281 
Q 2116 1406 1581 1522 
L 1381 1569 
Q 847 1681 609 1914 
Q 372 2147 372 2553 
Q 372 3047 722 3315 
Q 1072 3584 1716 3584 
Q 2034 3584 2315 3537 
Q 2597 3491 2834 3397 
z
" transform="scale(0.015625)"/>
       <path id="DejaVuSans-63" d="M 3122 3366 
L 3122 2828 
Q 2878 2963 2633 3030 
Q 2388 3097 2138 3097 
Q 1578 3097 1268 2742 
Q 959 2388 959 1747 
Q 959 1106 1268 751 
Q 1578 397 2138 397 
Q 2388 397 2633 464 
Q 2878 531 3122 666 
L 3122 134 
Q 2881 22 2623 -34 
Q 2366 -91 2075 -91 
Q 1284 -91 818 406 
Q 353 903 353 1747 
Q 353 2603 823 3093 
Q 1294 3584 2113 3584 
Q 2378 3584 2631 3529 
Q 2884 3475 3122 3366 
z
" transform="scale(0.015625)"/>
       <path id="DejaVuSans-29" d="M 513 4856 
L 1013 4856 
Q 1481 4119 1714 3412 
Q 1947 2706 1947 2009 
Q 1947 1309 1714 600 
Q 1481 -109 1013 -844 
L 513 -844 
Q 928 -128 1133 580 
Q 1338 1288 1338 2009 
Q 1338 2731 1133 3434 
Q 928 4138 513 4856 
z
" transform="scale(0.015625)"/>
      </defs>
      <use xlink:href="#DejaVuSans-74"/>
      <use xlink:href="#DejaVuSans-61" transform="translate(39.208984 0)"/>
      <use xlink:href="#DejaVuSans-6e" transform="translate(100.488281 0)"/>
      <use xlink:href="#DejaVuSans-67" transform="translate(163.867188 0)"/>
      <use xlink:href="#DejaVuSans-65" transform="translate(227.34375 0)"/>
      <use xlink:href="#DejaVuSans-6e" transform="translate(288.867188 0)"/>
      <use xlink:href="#DejaVuSans-74" transform="translate(352.246094 0)"/>
      <use xlink:href="#DejaVuSans-2d" transform="translate(391.455078 0)"/>
      <use xlink:href="#DejaVuSans-70" transform="translate(427.539062 0)"/>
      <use xlink:href="#DejaVuSans-6f" transform="translate(491.015625 0)"/>
      <use xlink:href="#DejaVuSans-69" transform="translate(552.197266 0)"/>
      <use xlink:href="#DejaVuSans-6e" transform="translate(579.980469 0)"/>
      <use xlink:href="#DejaVuSans-74" transform="translate(643.359375 0)"/>
      <use xlink:href="#DejaVuSans-20" transform="translate(682.568359 0)"/>
      <use xlink:href="#DejaVuSans-65" transform="translate(714.355469 0)"/>
      <use xlink:href="#DejaVuSans-6e" transform="translate(775.878906 0)"/>
      <use xlink:href="#DejaVuSans-65" transform="translate(839.257812 0)"/>
      <use xlink:href="#DejaVuSans-72" transform="translate(900.78125 0)"/>
      <use xlink:href="#DejaVuSans-67" transform="translate(940.144531 0)"/>
      <use xlink:href="#DejaVuSans-79" transform="translate(1003.621094 0)"/>
      <use xlink:href="#DejaVuSans-20" transform="translate(1062.800781 0)"/>
      <use xlink:href="#DejaVuSans-28" transform="translate(1094.587891 0)"/>
      <use xlink:href="#DejaVuSans-6c" transform="translate(1133.601562 0)"/>
      <use xlink:href="#DejaVuSans-6f" transform="translate(1161.384766 0)"/>
      <use xlink:href="#DejaVuSans-67" transform="translate(1222.566406 0)"/>
      <use xlink:href="#DejaVuSans-20" transform="translate(1286.042969 0)"/>
      <use xlink:href="#DejaVuSans-73" transform="translate(1317.830078 0)"/>
      <use xlink:href="#DejaVuSans-63" transform="translate(1369.929688 0)"/>
      <use xlink:href="#DejaVuSans-61" transform="translate(1424.910156 0)"/>
      <use xlink:href="#DejaVuSans-6c" transform="translate(1486.189453 0)"/>
      <use xlink:href="#DejaVuSans-65" transform="translate(1513.972656 0)"/>
      <use xlink:href="#DejaVuSans-29" transform="translate(1575.496094 0)"/>
     </g>
    </g>
   </g>
   <g id="line2d_63">
    <path d="M 81.731426 63.004457 
L 82.995176 107.625091 
L 84.258926 129.673721 
L 85.522675 154.3057 
L 86.786425 164.929359 
L 88.050175 166.136177 
L 89.313924 176.578244 
L 90.577674 176.709462 
L 91.841424 189.955524 
L 93.105173 194.103914 
L 94.368923 208.742773 
L 95.632673 229.24664 
L 96.896422 238.132296 
L 98.160172 239.590325 
L 99.423922 241.993258 
L 100.687671 245.481793 
L 104.47892 258.538219 
L 105.74267 261.25987 
L 107.00642 262.755446 
L 108.270169 263.235294 
L 109.533919 263.434426 
L 124.698915 263.532112 
L 266.238877 263.445581 
L 484.867569 263.404899 
L 487.395069 263.352238 
L 521.516309 263.479805 
L 548.055052 263.381046 
L 553.110051 263.348847 
L 578.385044 263.431457 
L 583.440043 263.483724 
L 611.242536 263.403164 
L 613.770035 263.34387 
L 633.99003 263.442176 
L 639.045028 263.40179 
L 713.606258 263.430661 
L 713.606258 263.430661 
" clip-path="url(#paa39b83f3f)" style="fill: none; stroke: #1f77b4; stroke-width: 2; stroke-linecap: square"/>
   </g>
   <g id="line2d_64">
    <path d="M 81.731426 170.859087 
L 82.995176 184.480728 
L 84.258926 191.091667 
L 85.522675 194.078039 
L 86.786425 194.63232 
L 88.050175 195.702006 
L 89.313924 195.735944 
L 90.577674 196.09427 
L 91.841424 196.61853 
L 93.105173 196.754798 
L 94.368923 175.165003 
L 95.632673 189.24768 
L 96.896422 192.242291 
L 98.160172 193.863289 
L 99.423922 195.183037 
L 101.951421 196.037837 
L 103.215171 196.242965 
L 105.74267 196.426916 
L 107.00642 184.612721 
L 108.270169 191.147676 
L 109.533919 194.009689 
L 110.797669 195.270569 
L 112.061418 195.814369 
L 113.325168 195.975391 
L 115.852667 196.042131 
L 117.116417 196.496411 
L 118.380167 196.559733 
L 119.643916 192.484223 
L 120.907666 192.73695 
L 122.171416 195.189255 
L 123.435165 195.536501 
L 124.698915 196.510189 
L 127.226414 197.099599 
L 131.017663 197.442666 
L 132.281413 194.504964 
L 133.545163 195.641585 
L 134.808912 196.144717 
L 136.072662 196.511258 
L 137.336412 196.530244 
L 138.600161 196.798389 
L 142.39141 197.157552 
L 143.65516 197.160966 
L 144.91891 195.042758 
L 147.446409 196.443002 
L 148.710159 196.576432 
L 149.973908 196.949955 
L 155.028907 197.299237 
L 156.292657 197.325244 
L 157.556406 194.54109 
L 158.820156 195.138133 
L 160.083906 196.253564 
L 161.347655 196.398114 
L 163.875155 196.925354 
L 166.402654 197.053532 
L 168.930153 197.310728 
L 170.193903 195.488808 
L 171.457653 196.167206 
L 172.721402 196.634458 
L 173.985152 196.676257 
L 175.248902 197.020826 
L 181.56765 197.481456 
L 182.831399 195.363275 
L 184.095149 195.910141 
L 185.358899 196.656404 
L 187.886398 196.926856 
L 189.150148 197.101301 
L 194.205146 197.300802 
L 195.468896 194.970554 
L 196.732646 196.187357 
L 197.996395 196.214216 
L 199.260145 196.691222 
L 200.523895 196.699916 
L 201.787644 197.107431 
L 203.051394 197.152243 
L 205.578893 197.395087 
L 206.842643 197.434332 
L 208.106393 195.870924 
L 209.370142 196.168621 
L 210.633892 196.700214 
L 213.161391 196.956005 
L 218.21639 197.278255 
L 219.48014 197.293513 
L 220.743889 195.210113 
L 223.271389 195.437035 
L 225.798888 195.9091 
L 228.326387 196.522242 
L 229.590137 196.903481 
L 232.117636 197.127383 
L 233.381386 195.060336 
L 234.645136 195.763981 
L 235.908885 196.313574 
L 237.172635 196.356829 
L 238.436385 196.643501 
L 240.963884 196.706309 
L 244.755133 196.706532 
L 246.018883 195.224724 
L 256.12888 195.289268 
L 257.39263 195.349973 
L 258.656379 193.526256 
L 259.920129 194.2409 
L 262.447628 195.487787 
L 263.711378 196.141961 
L 264.975128 196.327934 
L 266.238877 196.34373 
L 267.502627 196.638756 
L 270.030126 196.664083 
L 271.293876 193.486731 
L 273.821375 195.136607 
L 275.085125 195.646832 
L 276.348875 195.95978 
L 282.667623 196.501236 
L 283.931373 193.784259 
L 285.195122 194.898787 
L 287.722622 195.714522 
L 288.986371 195.922666 
L 290.250121 195.927728 
L 292.77762 196.19346 
L 295.30512 196.423575 
L 296.568869 191.112611 
L 299.096369 193.769836 
L 300.360118 194.673303 
L 301.623868 195.027574 
L 306.678867 195.778172 
L 307.942616 195.842253 
L 309.206366 192.659386 
L 310.470116 194.252462 
L 311.733865 194.802645 
L 316.788864 195.696212 
L 320.580113 196.108635 
L 321.843863 193.005032 
L 323.107612 194.255862 
L 324.371362 194.848389 
L 328.162611 195.745666 
L 329.426361 195.794015 
L 330.69011 196.007655 
L 333.21761 196.165174 
L 334.481359 193.773816 
L 335.745109 194.908428 
L 337.008859 195.395373 
L 338.272608 195.481098 
L 339.536358 195.787341 
L 343.327607 195.994434 
L 345.855106 196.318981 
L 347.118856 193.083864 
L 348.382605 193.242711 
L 349.646355 194.701778 
L 352.173854 195.322623 
L 355.965103 195.636764 
L 357.228853 195.665386 
L 358.492603 195.814191 
L 359.756352 193.470535 
L 361.020102 194.470646 
L 362.283852 194.926725 
L 363.547601 195.250701 
L 371.130099 195.855635 
L 372.393849 192.333292 
L 373.657599 193.28299 
L 374.921348 194.086275 
L 376.185098 194.324565 
L 377.448848 194.946858 
L 379.976347 195.239032 
L 381.240097 195.478106 
L 383.767596 195.679089 
L 385.031346 193.066754 
L 386.295095 194.104146 
L 388.822595 194.901223 
L 396.405093 194.908325 
L 397.668842 193.025882 
L 409.042589 193.026513 
L 410.306339 191.652623 
L 421.680086 191.709366 
L 422.943836 190.859183 
L 424.207585 190.889264 
L 425.471335 191.166029 
L 426.735085 191.602154 
L 427.998834 192.208032 
L 430.526334 193.597454 
L 433.053833 194.954559 
L 434.317583 195.2576 
L 435.581332 193.15437 
L 436.845082 194.003261 
L 438.108832 194.469434 
L 443.16383 195.121672 
L 446.955079 195.567787 
L 448.218829 192.467595 
L 449.482579 193.337512 
L 450.746328 193.729197 
L 452.010078 194.297332 
L 453.273828 194.315172 
L 454.537577 194.818293 
L 459.592576 195.386959 
L 460.856326 192.246192 
L 462.120075 193.314677 
L 463.383825 194.18368 
L 465.911324 194.870611 
L 467.175074 194.943112 
L 469.702573 195.270848 
L 470.966323 195.4409 
L 472.230073 195.488703 
L 473.493822 192.86893 
L 474.757572 193.946017 
L 476.021322 194.465632 
L 477.285071 194.711062 
L 478.548821 194.804421 
L 481.07632 195.213973 
L 484.867569 195.517525 
L 486.131319 192.762417 
L 487.395069 192.831138 
L 488.658818 194.292257 
L 489.922568 195.028471 
L 494.977567 195.684594 
L 497.505066 195.861184 
L 498.768816 192.165654 
L 502.560065 194.509008 
L 503.823814 194.859069 
L 505.087564 194.865986 
L 507.615063 195.4173 
L 510.142562 195.637969 
L 511.406312 193.006199 
L 512.670062 194.269932 
L 515.197561 195.03796 
L 516.461311 195.295063 
L 518.98881 195.576376 
L 520.25256 195.826162 
L 522.780059 195.902894 
L 524.043809 192.97063 
L 526.571308 193.097156 
L 529.098807 193.495269 
L 531.626307 194.258262 
L 535.417556 195.443957 
L 536.681305 194.227347 
L 537.945055 194.526916 
L 539.208805 195.128878 
L 540.472554 195.442025 
L 544.263803 195.721068 
L 548.055052 195.990941 
L 549.318802 191.956187 
L 550.582552 194.053382 
L 551.846301 194.760301 
L 553.110051 194.769472 
L 555.63755 195.52553 
L 558.16505 195.721673 
L 560.692549 195.811726 
L 561.956299 193.275043 
L 563.220048 194.030106 
L 564.483798 194.602715 
L 567.011297 195.187066 
L 569.538797 195.394356 
L 573.330046 195.648854 
L 574.593795 192.149684 
L 575.857545 192.633074 
L 577.121295 192.726858 
L 578.385044 193.796176 
L 579.648794 194.079692 
L 580.912544 194.518281 
L 583.440043 194.762857 
L 585.967542 194.857425 
L 587.231292 190.296457 
L 588.495042 191.191869 
L 589.758791 193.007019 
L 592.286291 194.1606 
L 593.55004 194.405656 
L 598.605039 194.795611 
L 599.868789 189.36787 
L 601.132538 191.128585 
L 602.396288 191.93805 
L 603.660038 193.184763 
L 604.923787 193.813883 
L 606.187537 194.205387 
L 607.451287 194.479666 
L 611.242536 194.979502 
L 612.506285 193.718422 
L 613.770035 194.89354 
L 615.033785 195.338078 
L 617.561284 195.595119 
L 621.352533 195.845151 
L 623.880032 195.997064 
L 625.143782 193.049594 
L 626.407532 194.243299 
L 627.671281 194.983702 
L 628.935031 195.273812 
L 632.72628 195.67703 
L 633.99003 195.942024 
L 636.517529 196.118121 
L 637.781279 193.513547 
L 639.045028 194.531302 
L 640.308778 194.573048 
L 641.572528 195.20514 
L 644.100027 195.578603 
L 645.363777 195.626806 
L 646.627526 195.895973 
L 649.155026 196.055741 
L 650.418775 192.625416 
L 652.946275 194.675239 
L 654.210024 194.864068 
L 655.473774 194.899748 
L 659.265023 195.503673 
L 661.792522 195.627266 
L 663.056272 192.844438 
L 666.847521 193.837656 
L 669.37502 194.802269 
L 673.166269 195.415194 
L 674.430019 195.425726 
L 675.693768 192.196533 
L 678.221268 192.411425 
L 680.748767 193.050036 
L 683.276266 193.779429 
L 687.067515 195.110624 
L 688.331265 192.090125 
L 689.595015 192.52443 
L 690.858764 193.347081 
L 693.386264 194.554056 
L 694.650013 194.929438 
L 695.913763 195.144512 
L 698.441262 195.335455 
L 699.705012 195.455452 
L 700.968762 190.326969 
L 702.232511 190.461027 
L 703.496261 193.11901 
L 704.760011 193.951244 
L 706.02376 194.195578 
L 707.28751 194.59977 
L 709.815009 194.883049 
L 711.078759 194.886031 
L 712.342509 195.107612 
L 713.606258 187.427026 
L 713.606258 187.427026 
" clip-path="url(#paa39b83f3f)" style="fill: none; stroke: #d62728; stroke-width: 2; stroke-linecap: square"/>
   </g>
   <g id="line2d_65">
    <path d="M 81.731426 100.527085 
L 82.995176 114.4806 
L 84.258926 133.866818 
L 85.522675 141.599908 
L 86.786425 146.09761 
L 88.050175 149.348379 
L 89.313924 151.168986 
L 90.577674 151.586205 
L 91.841424 154.746931 
L 93.105173 155.704416 
L 94.368923 141.927808 
L 95.632673 145.916582 
L 96.896422 146.604982 
L 98.160172 153.572111 
L 99.423922 156.646303 
L 100.687671 157.891728 
L 101.951421 160.014124 
L 104.47892 162.723221 
L 105.74267 163.372479 
L 107.00642 151.886279 
L 108.270169 156.255113 
L 109.533919 161.271003 
L 110.797669 163.776419 
L 112.061418 164.503466 
L 113.325168 166.550251 
L 114.588918 166.621473 
L 115.852667 167.805163 
L 117.116417 168.304669 
L 118.380167 169.052407 
L 119.643916 159.688227 
L 120.907666 164.899281 
L 122.171416 167.459501 
L 123.435165 168.97436 
L 124.698915 170.064965 
L 125.962665 171.007021 
L 127.226414 171.577083 
L 128.490164 171.827543 
L 129.753914 171.843643 
L 131.017663 172.426782 
L 132.281413 166.963786 
L 134.808912 170.685363 
L 136.072662 171.561658 
L 137.336412 172.097854 
L 139.863911 172.701633 
L 143.65516 173.364011 
L 144.91891 164.395264 
L 146.182659 165.646952 
L 147.446409 170.356274 
L 149.973908 172.277754 
L 151.237658 172.353842 
L 152.501408 173.013927 
L 155.028907 173.409706 
L 156.292657 173.421837 
L 157.556406 170.016628 
L 160.083906 172.412149 
L 161.347655 172.955202 
L 162.611405 173.070079 
L 163.875155 173.387571 
L 166.402654 173.631598 
L 167.666404 174.00735 
L 168.930153 174.144903 
L 170.193903 170.589931 
L 171.457653 171.293123 
L 172.721402 172.361138 
L 173.985152 173.123508 
L 176.512651 173.720972 
L 180.3039 174.213519 
L 181.56765 174.323907 
L 182.831399 170.836974 
L 184.095149 172.18182 
L 185.358899 173.117131 
L 187.886398 173.85772 
L 189.150148 174.061836 
L 190.413897 174.145721 
L 192.941397 174.588236 
L 194.205146 174.606581 
L 195.468896 168.18128 
L 196.732646 170.252145 
L 197.996395 171.248419 
L 199.260145 171.618673 
L 200.523895 173.058006 
L 201.787644 173.378749 
L 203.051394 173.890017 
L 206.842643 174.349595 
L 208.106393 168.663898 
L 209.370142 171.071315 
L 210.633892 172.031056 
L 213.161391 173.414584 
L 214.425141 173.610174 
L 215.688891 174.031324 
L 219.48014 174.662681 
L 220.743889 171.17359 
L 222.007639 171.94271 
L 223.271389 173.031807 
L 224.535138 173.568318 
L 229.590137 174.747584 
L 232.117636 175.100956 
L 233.381386 171.267344 
L 234.645136 172.475666 
L 235.908885 173.105294 
L 238.436385 173.827349 
L 240.963884 174.074596 
L 242.227634 174.415945 
L 243.491383 174.615064 
L 244.755133 174.672161 
L 246.018883 171.088903 
L 247.282632 171.683889 
L 248.546382 172.749072 
L 249.810132 173.216629 
L 252.337631 173.864444 
L 257.39263 174.60394 
L 258.656379 170.866384 
L 259.920129 170.953189 
L 261.183879 173.286528 
L 262.447628 173.874266 
L 263.711378 174.027123 
L 264.975128 174.39803 
L 266.238877 174.622576 
L 267.502627 175.107779 
L 270.030126 175.443372 
L 271.293876 169.870659 
L 272.557626 169.971335 
L 275.085125 173.063458 
L 276.348875 173.449419 
L 277.612624 174.151578 
L 278.876374 174.620628 
L 281.403873 174.914271 
L 282.667623 175.38414 
L 283.931373 168.129738 
L 285.195122 170.035224 
L 286.458872 171.504303 
L 287.722622 172.204047 
L 290.250121 173.142388 
L 294.04137 174.0636 
L 295.30512 174.208055 
L 296.568869 163.591375 
L 297.832619 169.142605 
L 299.096369 170.522245 
L 300.360118 171.175261 
L 301.623868 171.586197 
L 302.887618 172.468333 
L 304.151367 172.914546 
L 306.678867 173.429356 
L 307.942616 173.674373 
L 309.206366 170.652808 
L 310.470116 172.27788 
L 311.733865 173.138741 
L 312.997615 173.272505 
L 315.525114 174.572128 
L 316.788864 174.731501 
L 318.052614 175.285909 
L 319.316363 175.405595 
L 320.580113 175.880076 
L 321.843863 171.103055 
L 323.107612 172.269483 
L 324.371362 172.490592 
L 325.635112 173.902949 
L 326.898861 174.487192 
L 331.95386 175.58219 
L 333.21761 175.727132 
L 334.481359 170.658056 
L 337.008859 173.149293 
L 338.272608 173.519649 
L 339.536358 174.254817 
L 342.063857 174.878921 
L 344.591356 175.045028 
L 345.855106 175.44265 
L 347.118856 172.334985 
L 348.382605 173.770346 
L 349.646355 174.640809 
L 350.910105 174.833652 
L 352.173854 175.573915 
L 353.437604 175.762526 
L 355.965103 176.408737 
L 357.228853 176.571111 
L 358.492603 176.575815 
L 359.756352 173.026105 
L 361.020102 173.211272 
L 362.283852 175.32736 
L 363.547601 175.474708 
L 364.811351 176.166162 
L 367.33885 176.489172 
L 368.6026 176.676357 
L 369.86635 176.692827 
L 371.130099 176.844523 
L 372.393849 171.415467 
L 374.921348 174.75682 
L 376.185098 174.936975 
L 377.448848 175.743798 
L 379.976347 176.352317 
L 381.240097 176.387958 
L 382.503846 176.535785 
L 383.767596 177.046324 
L 385.031346 172.994119 
L 386.295095 174.676902 
L 387.558845 175.04517 
L 388.822595 175.050275 
L 390.086344 176.447183 
L 392.613844 176.715722 
L 393.877593 176.753474 
L 395.141343 177.018136 
L 396.405093 177.081066 
L 397.668842 172.090768 
L 398.932592 173.30161 
L 400.196342 174.889618 
L 401.460091 175.603981 
L 403.987591 176.292142 
L 405.25134 176.549423 
L 409.042589 177.029128 
L 410.306339 171.319292 
L 411.570089 173.001108 
L 412.833838 174.189077 
L 415.361338 175.443805 
L 417.888837 175.825114 
L 419.152587 175.92839 
L 420.416336 176.390065 
L 421.680086 176.449749 
L 422.943836 172.775584 
L 424.207585 174.342449 
L 425.471335 174.376552 
L 426.735085 176.065499 
L 427.998834 176.33144 
L 429.262584 176.732222 
L 434.317583 177.380918 
L 435.581332 171.755417 
L 436.845082 173.681176 
L 438.108832 174.983442 
L 440.636331 175.800908 
L 441.900081 175.857869 
L 443.16383 176.189422 
L 446.955079 176.599351 
L 448.218829 173.583191 
L 449.482579 174.666584 
L 450.746328 175.471818 
L 452.010078 175.950667 
L 458.328826 177.168935 
L 459.592576 177.38611 
L 460.856326 172.241058 
L 463.383825 175.513615 
L 464.647575 176.118525 
L 465.911324 176.432098 
L 467.175074 176.522154 
L 468.438824 176.825793 
L 469.702573 176.972676 
L 470.966323 177.324361 
L 472.230073 177.452762 
L 473.493822 173.720704 
L 474.757572 175.236668 
L 476.021322 175.616048 
L 477.285071 176.520489 
L 479.812571 177.147908 
L 482.34007 177.469338 
L 484.867569 177.737664 
L 486.131319 173.463025 
L 487.395069 175.06673 
L 488.658818 175.736926 
L 489.922568 176.866805 
L 491.186318 177.317144 
L 492.450067 177.423587 
L 493.713817 177.664586 
L 494.977567 177.75717 
L 496.241316 178.003086 
L 497.505066 178.110399 
L 498.768816 173.719635 
L 500.032565 175.265999 
L 501.296315 175.539976 
L 502.560065 176.939181 
L 503.823814 177.315419 
L 506.351313 177.677174 
L 510.142562 178.249271 
L 511.406312 172.918415 
L 513.933811 175.862427 
L 515.197561 176.148882 
L 518.98881 176.21181 
L 521.516309 176.616677 
L 522.780059 177.009934 
L 524.043809 173.000072 
L 525.307558 173.641318 
L 526.571308 175.284046 
L 527.835058 175.98065 
L 529.098807 176.10143 
L 534.153806 177.101253 
L 535.417556 177.210735 
L 536.681305 174.765079 
L 539.208805 176.352918 
L 541.736304 177.005138 
L 543.000054 177.334091 
L 545.527553 177.597303 
L 548.055052 177.975288 
L 549.318802 173.065535 
L 550.582552 174.970721 
L 551.846301 176.049926 
L 553.110051 176.557004 
L 555.63755 177.174077 
L 560.692549 177.918667 
L 561.956299 173.972721 
L 563.220048 175.523316 
L 564.483798 175.886846 
L 565.747548 176.6759 
L 567.011297 177.014731 
L 570.802546 177.485768 
L 572.066296 177.656941 
L 573.330046 177.708596 
L 574.593795 172.465678 
L 575.857545 172.960111 
L 578.385044 175.452754 
L 580.912544 176.593579 
L 582.176293 176.863269 
L 583.440043 176.90358 
L 584.703793 177.424848 
L 585.967542 177.799759 
L 587.231292 174.365545 
L 588.495042 175.582916 
L 589.758791 176.561099 
L 592.286291 177.334248 
L 593.55004 177.420751 
L 596.07754 177.830872 
L 598.605039 178.128443 
L 599.868789 174.905816 
L 602.396288 176.956154 
L 603.660038 177.439826 
L 606.187537 178.025738 
L 607.451287 178.218064 
L 609.978786 178.35629 
L 611.242536 178.56391 
L 612.506285 175.292358 
L 613.770035 176.482068 
L 616.297534 177.516923 
L 617.561284 177.710192 
L 618.825034 178.075491 
L 620.088783 178.177772 
L 621.352533 178.425394 
L 623.880032 178.538225 
L 625.143782 174.92964 
L 626.407532 175.211231 
L 627.671281 176.705493 
L 628.935031 176.970359 
L 630.198781 177.517873 
L 631.46253 177.536239 
L 632.72628 177.926724 
L 633.99003 178.14227 
L 636.517529 178.334616 
L 637.781279 174.783709 
L 639.045028 174.825648 
L 640.308778 176.568228 
L 641.572528 177.172051 
L 642.836277 177.440142 
L 644.100027 177.460496 
L 645.363777 177.861223 
L 649.155026 178.291493 
L 650.418775 174.196721 
L 651.682525 175.245392 
L 652.946275 175.384428 
L 654.210024 175.988632 
L 655.473774 176.835616 
L 658.001273 177.520721 
L 660.528773 177.843553 
L 661.792522 178.093669 
L 663.056272 172.934026 
L 664.320022 174.595044 
L 665.583771 175.885963 
L 666.847521 176.482975 
L 668.11127 176.696184 
L 670.63877 176.810605 
L 671.902519 177.397284 
L 673.166269 177.554461 
L 674.430019 177.824453 
L 675.693768 172.35007 
L 676.957518 174.360044 
L 678.221268 174.867243 
L 679.485017 175.650684 
L 682.012517 176.062977 
L 683.276266 176.26653 
L 684.540016 176.312682 
L 685.803766 176.725193 
L 687.067515 176.889878 
L 688.331265 172.66883 
L 689.595015 173.919529 
L 690.858764 174.15008 
L 692.122514 175.688292 
L 694.650013 176.57961 
L 695.913763 176.652588 
L 697.177513 177.037337 
L 699.705012 177.466496 
L 700.968762 174.556724 
L 702.232511 175.119155 
L 703.496261 176.269524 
L 704.760011 176.385249 
L 706.02376 177.331109 
L 709.815009 178.073057 
L 711.078759 178.14585 
L 712.342509 178.384564 
L 713.606258 174.056544 
L 713.606258 174.056544 
" clip-path="url(#paa39b83f3f)" style="fill: none; stroke: #2ca02c; stroke-width: 2; stroke-linecap: square"/>
   </g>
   <g id="line2d_66">
    <path d="M 81.731426 73.954919 
L 82.995176 93.754102 
L 84.258926 107.782796 
L 85.522675 114.495061 
L 86.786425 119.071177 
L 88.050175 119.910127 
L 89.313924 121.607012 
L 90.577674 123.754731 
L 91.841424 127.680718 
L 93.105173 129.505497 
L 94.368923 118.911442 
L 95.632673 124.204592 
L 96.896422 128.923614 
L 99.423922 134.362051 
L 101.951421 137.42511 
L 103.215171 138.487368 
L 104.47892 140.287678 
L 105.74267 141.584327 
L 107.00642 132.429433 
L 108.270169 136.763315 
L 109.533919 140.526929 
L 110.797669 143.710915 
L 112.061418 145.572473 
L 113.325168 147.114786 
L 115.852667 148.924752 
L 117.116417 149.371027 
L 118.380167 149.949356 
L 119.643916 141.070187 
L 120.907666 146.321652 
L 122.171416 149.415167 
L 123.435165 150.510585 
L 124.698915 150.5941 
L 125.962665 152.118338 
L 127.226414 152.385689 
L 128.490164 153.317134 
L 129.753914 153.748535 
L 131.017663 153.905593 
L 132.281413 144.861562 
L 133.545163 149.587301 
L 134.808912 152.100457 
L 137.336412 153.86479 
L 138.600161 154.477271 
L 139.863911 154.503114 
L 141.127661 155.041975 
L 142.39141 155.242529 
L 143.65516 155.258451 
L 144.91891 147.000293 
L 146.182659 152.034523 
L 147.446409 153.729474 
L 149.973908 155.187447 
L 153.765157 156.28001 
L 156.292657 156.681028 
L 157.556406 151.432798 
L 158.820156 153.323927 
L 160.083906 154.862128 
L 162.611405 155.914689 
L 163.875155 156.138069 
L 165.138904 156.670886 
L 167.666404 157.009897 
L 168.930153 157.25541 
L 170.193903 152.859761 
L 171.457653 154.477669 
L 172.721402 155.86011 
L 173.985152 156.687478 
L 175.248902 157.118874 
L 177.776401 157.536328 
L 179.040151 158.126213 
L 180.3039 158.330668 
L 181.56765 158.733647 
L 182.831399 154.714208 
L 184.095149 156.173975 
L 185.358899 156.52522 
L 186.622648 157.064988 
L 187.886398 158.127949 
L 189.150148 158.81447 
L 190.413897 159.185525 
L 191.677647 159.319126 
L 192.941397 159.852964 
L 194.205146 160.039557 
L 195.468896 154.824394 
L 196.732646 157.586012 
L 199.260145 159.406469 
L 201.787644 160.422486 
L 205.578893 161.407746 
L 206.842643 161.717887 
L 208.106393 157.357907 
L 209.370142 158.91923 
L 210.633892 160.167452 
L 213.161391 161.217841 
L 214.425141 161.501286 
L 215.688891 161.992758 
L 218.21639 162.44847 
L 219.48014 162.58624 
L 220.743889 159.769115 
L 222.007639 160.625977 
L 223.271389 161.744306 
L 224.535138 162.213531 
L 225.798888 162.90998 
L 227.062638 163.165804 
L 228.326387 163.664219 
L 230.853887 164.176213 
L 232.117636 164.567945 
L 233.381386 160.749907 
L 234.645136 161.466551 
L 235.908885 162.753228 
L 237.172635 163.368263 
L 238.436385 164.122262 
L 239.700134 164.264928 
L 240.963884 164.779372 
L 242.227634 164.97514 
L 243.491383 165.38164 
L 244.755133 165.494432 
L 246.018883 161.443475 
L 247.282632 162.858734 
L 248.546382 163.938078 
L 249.810132 164.073747 
L 251.073881 164.768421 
L 252.337631 164.77264 
L 253.601381 165.219914 
L 256.12888 165.701702 
L 257.39263 165.816022 
L 258.656379 162.790259 
L 259.920129 163.995663 
L 261.183879 164.681722 
L 263.711378 165.386159 
L 264.975128 165.609563 
L 266.238877 165.650312 
L 267.502627 165.94019 
L 268.766377 166.051268 
L 270.030126 166.30168 
L 271.293876 163.198918 
L 272.557626 164.212953 
L 273.821375 164.800301 
L 275.085125 165.012394 
L 276.348875 165.4523 
L 282.667623 166.281801 
L 283.931373 163.231076 
L 286.458872 164.861854 
L 287.722622 165.0668 
L 288.986371 165.488686 
L 295.30512 166.356895 
L 296.568869 163.383108 
L 297.832619 164.432452 
L 299.096369 164.926557 
L 300.360118 165.078352 
L 301.623868 165.559777 
L 304.151367 166.038065 
L 305.415117 166.176746 
L 306.678867 166.196054 
L 307.942616 166.36489 
L 309.206366 163.619154 
L 310.470116 164.557097 
L 311.733865 165.02056 
L 312.997615 165.198774 
L 315.525114 165.772345 
L 316.788864 165.837093 
L 318.052614 166.122258 
L 320.580113 166.344186 
L 321.843863 163.607817 
L 323.107612 164.463504 
L 324.371362 164.987551 
L 325.635112 165.063435 
L 326.898861 165.617763 
L 328.162611 165.693004 
L 330.69011 166.070468 
L 331.95386 166.072655 
L 333.21761 166.356028 
L 334.481359 163.587799 
L 335.745109 163.711686 
L 337.008859 165.102111 
L 338.272608 165.428907 
L 339.536358 165.516038 
L 343.327607 166.045378 
L 344.591356 166.193186 
L 345.855106 166.196341 
L 347.118856 163.500779 
L 348.382605 164.344131 
L 349.646355 165.050982 
L 352.173854 165.563217 
L 354.701354 165.952295 
L 355.965103 166.115968 
L 358.492603 166.215474 
L 359.756352 163.775131 
L 361.020102 164.015094 
L 362.283852 165.211309 
L 363.547601 165.392432 
L 364.811351 165.74946 
L 371.130099 166.440166 
L 372.393849 163.887456 
L 373.657599 164.638498 
L 376.185098 164.927461 
L 377.448848 165.715925 
L 379.976347 166.108632 
L 383.767596 166.450125 
L 385.031346 163.56882 
L 386.295095 164.607025 
L 387.558845 164.843388 
L 388.822595 165.394554 
L 392.613844 166.048228 
L 393.877593 166.298606 
L 396.405093 166.509682 
L 397.668842 163.926493 
L 398.932592 164.32679 
L 400.196342 164.524317 
L 401.460091 165.513997 
L 403.987591 165.84387 
L 405.25134 165.86214 
L 406.51509 166.350732 
L 407.77884 166.588267 
L 409.042589 166.673475 
L 410.306339 163.838326 
L 412.833838 164.521033 
L 414.097588 165.562473 
L 416.625087 165.760618 
L 417.888837 166.251393 
L 419.152587 166.418909 
L 420.416336 166.432531 
L 421.680086 166.639022 
L 422.943836 163.998438 
L 424.207585 164.593219 
L 425.471335 165.002054 
L 426.735085 165.85969 
L 429.262584 166.147434 
L 430.526334 166.292171 
L 431.790083 166.306196 
L 434.317583 166.528987 
L 435.581332 163.484924 
L 436.845082 164.800301 
L 438.108832 165.29567 
L 439.372581 165.594197 
L 440.636331 165.632679 
L 443.16383 165.969991 
L 446.955079 166.356414 
L 448.218829 163.936608 
L 449.482579 164.716344 
L 450.746328 165.200969 
L 452.010078 165.501755 
L 454.537577 165.805025 
L 455.801327 165.854887 
L 457.065077 166.117207 
L 459.592576 166.359014 
L 460.856326 163.752819 
L 462.120075 164.552653 
L 464.647575 165.36477 
L 469.702573 166.005614 
L 470.966323 166.017754 
L 472.230073 166.201505 
L 473.493822 163.681484 
L 474.757572 164.275198 
L 476.021322 164.377354 
L 477.285071 165.278313 
L 478.548821 165.449155 
L 479.812571 165.772439 
L 483.60382 166.195672 
L 484.867569 166.234337 
L 486.131319 163.34871 
L 487.395069 163.399989 
L 488.658818 165.165593 
L 489.922568 165.469143 
L 494.977567 166.034077 
L 496.241316 166.319557 
L 497.505066 166.397093 
L 498.768816 163.22873 
L 500.032565 164.128977 
L 501.296315 164.8587 
L 505.087564 165.551692 
L 510.142562 166.259063 
L 511.406312 163.506462 
L 512.670062 164.386616 
L 513.933811 164.970793 
L 515.197561 165.144595 
L 516.461311 165.436578 
L 517.72506 165.520956 
L 520.25256 166.103775 
L 522.780059 166.394488 
L 524.043809 163.665928 
L 525.307558 164.525383 
L 526.571308 165.0809 
L 530.362557 165.585541 
L 532.890056 166.088162 
L 535.417556 166.273068 
L 536.681305 163.779768 
L 537.945055 164.010755 
L 539.208805 165.267117 
L 540.472554 165.312856 
L 541.736304 165.54621 
L 544.263803 166.167576 
L 545.527553 166.482063 
L 548.055052 166.579997 
L 549.318802 163.730272 
L 550.582552 164.204287 
L 551.846301 165.263998 
L 553.110051 165.314695 
L 554.373801 165.650405 
L 555.63755 165.810476 
L 558.16505 166.422 
L 560.692549 166.64146 
L 561.956299 163.94993 
L 563.220048 164.241336 
L 564.483798 165.493598 
L 565.747548 165.642846 
L 567.011297 166.036546 
L 573.330046 166.802978 
L 574.593795 164.072355 
L 575.857545 164.718761 
L 577.121295 165.742805 
L 578.385044 165.800514 
L 579.648794 166.139039 
L 583.440043 166.664393 
L 585.967542 166.865252 
L 587.231292 163.481618 
L 588.495042 163.681484 
L 589.758791 165.386436 
L 592.286291 166.322346 
L 593.55004 166.52559 
L 594.81379 166.600141 
L 597.341289 166.964676 
L 598.605039 167.091693 
L 599.868789 164.155333 
L 601.132538 165.238142 
L 602.396288 165.289975 
L 603.660038 165.725006 
L 604.923787 165.860256 
L 606.187537 166.583305 
L 607.451287 166.92592 
L 611.242536 167.206925 
L 612.506285 163.582265 
L 613.770035 165.21552 
L 615.033785 165.347452 
L 616.297534 166.178084 
L 617.561284 166.413887 
L 618.825034 166.962104 
L 621.352533 167.443322 
L 623.880032 167.71505 
L 625.143782 162.156256 
L 626.407532 162.459723 
L 627.671281 163.573584 
L 628.935031 165.563124 
L 630.198781 165.698615 
L 631.46253 166.899857 
L 632.72628 167.412614 
L 633.99003 167.528696 
L 636.517529 168.103282 
L 637.781279 164.401884 
L 639.045028 165.703292 
L 641.572528 167.162359 
L 642.836277 167.520885 
L 645.363777 167.65038 
L 646.627526 168.172194 
L 649.155026 168.471764 
L 650.418775 165.11678 
L 651.682525 165.718453 
L 652.946275 165.971884 
L 654.210024 167.335323 
L 655.473774 167.630495 
L 656.737524 168.271188 
L 658.001273 168.454629 
L 659.265023 168.51042 
L 661.792522 168.903919 
L 663.056272 165.01067 
L 664.320022 165.435562 
L 665.583771 167.504966 
L 666.847521 167.996734 
L 671.902519 168.761871 
L 673.166269 168.941921 
L 674.430019 168.945379 
L 675.693768 165.738589 
L 676.957518 166.00533 
L 678.221268 167.928666 
L 682.012517 168.750833 
L 684.540016 169.13443 
L 685.803766 169.404691 
L 687.067515 169.477498 
L 688.331265 166.066189 
L 689.595015 166.20801 
L 690.858764 168.165409 
L 692.122514 168.392858 
L 693.386264 169.126802 
L 695.913763 169.542105 
L 699.705012 169.977105 
L 700.968762 166.26031 
L 702.232511 166.277578 
L 703.496261 168.464041 
L 704.760011 168.874597 
L 706.02376 168.932847 
L 707.28751 169.666299 
L 712.342509 170.293991 
L 713.606258 166.159173 
L 713.606258 166.159173 
" clip-path="url(#paa39b83f3f)" style="fill: none; stroke: #9467bd; stroke-width: 2; stroke-linecap: square"/>
   </g>
   <g id="line2d_67">
    <path d="M 81.731426 53.984886 
L 82.995176 71.931626 
L 84.258926 86.554684 
L 85.522675 93.984428 
L 86.786425 96.086511 
L 88.050175 100.87309 
L 89.313924 104.099595 
L 91.841424 109.130332 
L 93.105173 111.283823 
L 94.368923 98.579997 
L 95.632673 103.424711 
L 96.896422 110.163389 
L 98.160172 113.858648 
L 99.423922 116.935458 
L 101.951421 120.722767 
L 103.215171 122.199257 
L 104.47892 122.234108 
L 105.74267 124.291833 
L 107.00642 116.066123 
L 108.270169 120.406985 
L 109.533919 124.17996 
L 110.797669 127.07298 
L 112.061418 129.21258 
L 113.325168 129.88479 
L 114.588918 131.108768 
L 115.852667 131.282606 
L 117.116417 133.144872 
L 118.380167 134.125287 
L 119.643916 128.239733 
L 120.907666 131.931496 
L 122.171416 134.022598 
L 123.435165 135.194556 
L 125.962665 136.979193 
L 127.226414 137.484432 
L 128.490164 137.815625 
L 129.753914 139.005795 
L 131.017663 139.615026 
L 132.281413 132.965009 
L 133.545163 136.503679 
L 134.808912 138.820047 
L 136.072662 139.727434 
L 137.336412 139.934952 
L 138.600161 141.030398 
L 139.863911 141.427458 
L 141.127661 141.973091 
L 143.65516 142.558874 
L 144.91891 135.704377 
L 147.446409 140.347593 
L 148.710159 141.226083 
L 151.237658 141.463312 
L 152.501408 142.543115 
L 155.028907 143.592118 
L 156.292657 143.842081 
L 157.556406 136.543459 
L 158.820156 137.026717 
L 160.083906 139.501807 
L 161.347655 140.056056 
L 162.611405 141.232128 
L 163.875155 141.424727 
L 165.138904 143.62442 
L 166.402654 144.562422 
L 167.666404 144.849723 
L 168.930153 144.884071 
L 170.193903 141.098713 
L 171.457653 142.479589 
L 175.248902 144.662659 
L 177.776401 146.596186 
L 180.3039 147.368113 
L 181.56765 147.428098 
L 182.831399 140.471921 
L 184.095149 144.294691 
L 185.358899 144.874035 
L 186.622648 145.618275 
L 187.886398 146.124956 
L 189.150148 146.919124 
L 191.677647 147.872581 
L 192.941397 148.207836 
L 194.205146 148.421083 
L 195.468896 143.948208 
L 196.732646 145.08383 
L 199.260145 146.445432 
L 200.523895 147.854902 
L 201.787644 148.673479 
L 203.051394 149.212073 
L 204.315144 149.341016 
L 205.578893 149.92788 
L 206.842643 150.087001 
L 208.106393 144.74103 
L 210.633892 148.270194 
L 211.897642 149.034846 
L 213.161391 149.544372 
L 214.425141 149.734366 
L 215.688891 150.083732 
L 219.48014 150.689675 
L 220.743889 146.819223 
L 222.007639 148.646487 
L 223.271389 149.432847 
L 224.535138 149.696293 
L 225.798888 149.69946 
L 227.062638 150.264709 
L 229.590137 150.866915 
L 232.117636 151.198108 
L 233.381386 147.614288 
L 234.645136 148.884617 
L 235.908885 149.745308 
L 237.172635 150.289807 
L 238.436385 150.38963 
L 239.700134 150.634492 
L 242.227634 151.335449 
L 244.755133 151.62567 
L 246.018883 148.002125 
L 247.282632 148.188347 
L 248.546382 149.986605 
L 249.810132 150.67903 
L 251.073881 150.810476 
L 254.86513 151.616172 
L 256.12888 151.706968 
L 257.39263 152.06897 
L 258.656379 147.421503 
L 259.920129 149.053255 
L 261.183879 149.947778 
L 262.447628 150.097368 
L 263.711378 150.671169 
L 266.238877 151.221374 
L 270.030126 151.743732 
L 271.293876 148.325428 
L 272.557626 148.368425 
L 273.821375 150.231461 
L 275.085125 150.405442 
L 276.348875 151.133298 
L 278.876374 151.65524 
L 280.140124 151.728909 
L 281.403873 152.019507 
L 282.667623 152.174885 
L 283.931373 148.550437 
L 285.195122 148.775519 
L 286.458872 150.526102 
L 287.722622 150.721783 
L 288.986371 151.20429 
L 290.250121 151.220343 
L 291.513871 151.777383 
L 292.77762 151.836661 
L 295.30512 152.24185 
L 296.568869 148.023711 
L 297.832619 149.693219 
L 299.096369 150.379646 
L 300.360118 150.760336 
L 301.623868 150.983719 
L 302.887618 151.333573 
L 304.151367 151.399806 
L 305.415117 151.723484 
L 307.942616 152.024341 
L 309.206366 148.6471 
L 310.470116 149.08927 
L 311.733865 150.427664 
L 312.997615 151.052632 
L 314.261365 151.249285 
L 315.525114 151.598536 
L 316.788864 151.675476 
L 318.052614 152.006281 
L 319.316363 152.010044 
L 320.580113 152.23106 
L 321.843863 148.442164 
L 323.107612 148.485993 
L 324.371362 150.118165 
L 325.635112 150.782189 
L 326.898861 151.00618 
L 328.162611 151.487295 
L 330.69011 151.919284 
L 331.95386 152.148871 
L 333.21761 152.161567 
L 334.481359 148.811135 
L 335.745109 149.886146 
L 338.272608 150.786572 
L 339.536358 150.855607 
L 340.800108 151.262417 
L 342.063857 151.291119 
L 343.327607 151.716053 
L 345.855106 151.846202 
L 347.118856 148.902239 
L 348.382605 149.442101 
L 349.646355 150.597778 
L 350.910105 151.100938 
L 357.228853 152.025003 
L 358.492603 152.046084 
L 359.756352 148.934907 
L 361.020102 149.434843 
L 362.283852 150.767602 
L 363.547601 150.976772 
L 364.811351 151.38041 
L 366.075101 151.396391 
L 367.33885 151.709879 
L 368.6026 151.823188 
L 371.130099 152.231112 
L 372.393849 148.871963 
L 373.657599 149.49884 
L 374.921348 150.65857 
L 376.185098 151.017224 
L 382.503846 151.978683 
L 383.767596 152.06535 
L 385.031346 148.654634 
L 386.295095 149.3365 
L 387.558845 150.606043 
L 392.613844 151.597288 
L 395.141343 151.705563 
L 396.405093 152.043486 
L 397.668842 148.69967 
L 398.932592 148.907289 
L 400.196342 150.539008 
L 401.460091 150.80445 
L 402.723841 151.193644 
L 409.042589 152.018794 
L 410.306339 148.626308 
L 411.570089 149.617872 
L 412.833838 150.156819 
L 415.361338 150.807294 
L 417.888837 151.274819 
L 419.152587 151.365973 
L 421.680086 151.761934 
L 422.943836 148.843936 
L 424.207585 149.234044 
L 425.471335 150.393274 
L 426.735085 150.476639 
L 427.998834 150.747542 
L 429.262584 151.267289 
L 430.526334 151.539684 
L 431.790083 151.62767 
L 434.317583 152.055256 
L 435.581332 148.718026 
L 436.845082 149.004391 
L 438.108832 150.258027 
L 439.372581 150.940077 
L 441.900081 151.410055 
L 444.42758 151.706467 
L 445.69133 151.924401 
L 446.955079 152.020321 
L 448.218829 148.779527 
L 449.482579 149.70786 
L 452.010078 150.649328 
L 453.273828 150.988725 
L 459.592576 151.808716 
L 460.856326 148.96709 
L 462.120075 149.344901 
L 463.383825 150.633296 
L 465.911324 151.134472 
L 467.175074 151.156692 
L 468.438824 151.526887 
L 470.966323 151.970406 
L 472.230073 152.103215 
L 473.493822 148.838812 
L 474.757572 149.36958 
L 476.021322 150.669971 
L 477.285071 151.019609 
L 478.548821 151.224714 
L 479.812571 151.545413 
L 481.07632 151.659997 
L 483.60382 152.075193 
L 484.867569 152.144726 
L 486.131319 148.643991 
L 487.395069 149.888507 
L 488.658818 150.340702 
L 493.713817 151.505292 
L 496.241316 151.847363 
L 497.505066 151.995654 
L 498.768816 148.521806 
L 500.032565 148.70485 
L 501.296315 150.18508 
L 502.560065 150.953806 
L 507.615063 151.922678 
L 510.142562 152.15788 
L 511.406312 148.853657 
L 512.670062 149.003768 
L 513.933811 150.582737 
L 516.461311 150.805655 
L 517.72506 151.62442 
L 520.25256 152.066981 
L 522.780059 152.323761 
L 524.043809 149.09003 
L 525.307558 149.465751 
L 526.571308 150.90199 
L 527.835058 150.994461 
L 529.098807 151.229036 
L 530.362557 151.749663 
L 531.626307 152.011926 
L 535.417556 152.385379 
L 536.681305 148.950749 
L 537.945055 149.618878 
L 539.208805 151.001608 
L 548.055052 152.277595 
L 549.318802 149.312489 
L 550.582552 149.950238 
L 551.846301 151.07604 
L 553.110051 151.301466 
L 554.373801 151.674173 
L 555.63755 151.748658 
L 558.16505 152.155423 
L 560.692549 152.291754 
L 561.956299 149.392339 
L 563.220048 150.029736 
L 564.483798 151.092928 
L 567.011297 151.576074 
L 568.275047 151.869744 
L 569.538797 152.039259 
L 570.802546 152.091471 
L 572.066296 152.350753 
L 573.330046 152.382689 
L 574.593795 149.532844 
L 575.857545 150.191787 
L 577.121295 151.020777 
L 578.385044 151.520117 
L 582.176293 151.996519 
L 583.440043 152.299069 
L 584.703793 152.313964 
L 585.967542 152.534672 
L 587.231292 149.58584 
L 588.495042 149.910825 
L 589.758791 151.215236 
L 591.022541 151.68149 
L 592.286291 151.814464 
L 593.55004 152.074478 
L 596.07754 152.403177 
L 598.605039 152.829408 
L 599.868789 149.789637 
L 601.132538 150.200795 
L 602.396288 151.523303 
L 604.923787 151.920905 
L 607.451287 152.608308 
L 609.978786 152.686955 
L 611.242536 152.981054 
L 612.506285 149.917868 
L 613.770035 150.194555 
L 615.033785 150.957155 
L 616.297534 151.927239 
L 618.825034 152.624454 
L 623.880032 153.126886 
L 625.143782 150.264286 
L 626.407532 150.823547 
L 627.671281 151.808515 
L 628.935031 152.330777 
L 630.198781 152.703788 
L 631.46253 152.728772 
L 632.72628 153.06475 
L 633.99003 153.108398 
L 636.517529 153.450524 
L 637.781279 150.319132 
L 639.045028 150.925775 
L 640.308778 152.077896 
L 645.363777 152.941469 
L 647.891276 153.479773 
L 649.155026 153.589512 
L 650.418775 150.508301 
L 651.682525 150.891921 
L 652.946275 151.505192 
L 654.210024 152.392828 
L 655.473774 152.733919 
L 656.737524 152.741064 
L 658.001273 153.266516 
L 659.265023 153.462837 
L 660.528773 153.793478 
L 661.792522 153.879046 
L 663.056272 150.7324 
L 664.320022 151.263205 
L 665.583771 152.09193 
L 666.847521 152.781613 
L 668.11127 153.255116 
L 669.37502 153.307648 
L 670.63877 153.640918 
L 673.166269 153.858659 
L 674.430019 154.100737 
L 675.693768 150.980075 
L 676.957518 151.613224 
L 678.221268 152.857596 
L 682.012517 153.651148 
L 684.540016 154.024612 
L 687.067515 154.183226 
L 688.331265 150.95104 
L 689.595015 152.062596 
L 690.858764 152.254135 
L 692.122514 152.927583 
L 693.386264 153.353012 
L 694.650013 153.60971 
L 695.913763 153.694032 
L 697.177513 154.048659 
L 698.441262 154.28678 
L 699.705012 154.391039 
L 700.968762 151.259466 
L 702.232511 152.250485 
L 703.496261 152.89989 
L 706.02376 153.49645 
L 707.28751 153.885514 
L 711.078759 154.348103 
L 712.342509 154.381258 
L 713.606258 151.56959 
L 713.606258 151.56959 
" clip-path="url(#paa39b83f3f)" style="fill: none; stroke: #ff7f0e; stroke-width: 2; stroke-linecap: square"/>
   </g>
   <g id="line2d_68">
    <path d="M 81.731426 38.150909 
L 82.995176 55.438592 
L 84.258926 67.890872 
L 85.522675 76.332501 
L 86.786425 80.964832 
L 88.050175 84.897916 
L 89.313924 86.051414 
L 90.577674 87.50134 
L 91.841424 88.670508 
L 93.105173 90.595951 
L 94.368923 80.034845 
L 95.632673 85.116109 
L 96.896422 85.735371 
L 98.160172 93.960367 
L 99.423922 97.968358 
L 100.687671 101.497696 
L 101.951421 103.367302 
L 103.215171 105.842762 
L 105.74267 109.7631 
L 107.00642 98.191886 
L 108.270169 104.869537 
L 109.533919 108.899869 
L 110.797669 111.919893 
L 112.061418 113.86228 
L 113.325168 116.170336 
L 114.588918 116.892249 
L 115.852667 118.74855 
L 117.116417 119.366709 
L 118.380167 120.796577 
L 119.643916 110.755444 
L 120.907666 116.947743 
L 122.171416 120.653104 
L 123.435165 122.967867 
L 124.698915 123.169765 
L 125.962665 125.136575 
L 127.226414 125.898171 
L 128.490164 126.522276 
L 129.753914 126.76309 
L 131.017663 127.769266 
L 132.281413 121.838135 
L 133.545163 125.577435 
L 136.072662 127.697262 
L 141.127661 130.16818 
L 142.39141 130.67219 
L 143.65516 130.720458 
L 144.91891 124.328753 
L 146.182659 127.504491 
L 147.446409 129.14978 
L 151.237658 131.693606 
L 152.501408 132.254552 
L 156.292657 133.483757 
L 157.556406 125.794815 
L 158.820156 130.137604 
L 160.083906 131.486962 
L 161.347655 132.012609 
L 163.875155 133.576952 
L 165.138904 134.131805 
L 166.402654 134.381494 
L 167.666404 134.837155 
L 168.930153 135.429737 
L 170.193903 129.684453 
L 171.457653 130.848026 
L 172.721402 133.661879 
L 173.985152 134.0356 
L 176.512651 135.403486 
L 177.776401 135.772355 
L 179.040151 136.577884 
L 180.3039 137.0901 
L 181.56765 137.407018 
L 182.831399 130.937857 
L 184.095149 133.469265 
L 185.358899 134.015746 
L 186.622648 135.868595 
L 187.886398 136.260102 
L 189.150148 137.323015 
L 190.413897 137.864927 
L 194.205146 138.923594 
L 195.468896 130.745913 
L 196.732646 133.272212 
L 197.996395 133.7653 
L 199.260145 135.185653 
L 200.523895 136.845143 
L 201.787644 137.742751 
L 205.578893 139.09932 
L 206.842643 139.28284 
L 208.106393 131.445576 
L 209.370142 134.192213 
L 210.633892 136.414746 
L 211.897642 137.356139 
L 213.161391 137.475799 
L 214.425141 138.188094 
L 215.688891 138.591966 
L 219.48014 139.237619 
L 220.743889 134.275805 
L 222.007639 136.209435 
L 223.271389 137.208059 
L 224.535138 138.015094 
L 225.798888 138.416675 
L 227.062638 138.443273 
L 228.326387 138.973198 
L 229.590137 139.137953 
L 230.853887 139.498513 
L 232.117636 139.652501 
L 233.381386 134.891275 
L 234.645136 136.911159 
L 235.908885 138.145844 
L 237.172635 138.660125 
L 238.436385 138.831645 
L 239.700134 139.381123 
L 242.227634 139.623583 
L 243.491383 140.091162 
L 244.755133 140.338877 
L 246.018883 133.79452 
L 247.282632 136.69292 
L 248.546382 137.926401 
L 249.810132 138.695337 
L 251.073881 139.225694 
L 253.601381 139.741395 
L 256.12888 140.144644 
L 257.39263 140.185899 
L 258.656379 136.25339 
L 259.920129 136.647533 
L 261.183879 138.543838 
L 262.447628 139.269333 
L 263.711378 139.667473 
L 266.238877 139.839164 
L 267.502627 140.383885 
L 270.030126 140.670182 
L 271.293876 136.665127 
L 272.557626 137.624882 
L 273.821375 138.149714 
L 275.085125 139.033986 
L 276.348875 139.171595 
L 277.612624 139.868302 
L 278.876374 140.36137 
L 280.140124 140.706047 
L 282.667623 141.075845 
L 283.931373 135.728123 
L 285.195122 138.09899 
L 286.458872 139.144006 
L 287.722622 139.746906 
L 290.250121 140.416805 
L 292.77762 140.911111 
L 295.30512 141.123578 
L 296.568869 137.210113 
L 297.832619 138.688025 
L 299.096369 139.041039 
L 300.360118 139.757813 
L 301.623868 140.219403 
L 305.415117 140.807155 
L 306.678867 140.928375 
L 307.942616 141.429681 
L 309.206366 137.113994 
L 310.470116 137.317196 
L 311.733865 139.024823 
L 312.997615 139.618893 
L 314.261365 139.938399 
L 315.525114 140.922785 
L 320.580113 141.990572 
L 321.843863 138.138408 
L 323.107612 139.272565 
L 324.371362 139.904243 
L 325.635112 140.209744 
L 328.162611 140.59584 
L 329.426361 141.460544 
L 333.21761 142.148189 
L 334.481359 138.183585 
L 335.745109 139.120491 
L 337.008859 139.629797 
L 338.272608 140.580634 
L 340.800108 141.108418 
L 343.327607 141.546811 
L 345.855106 142.041465 
L 347.118856 138.13764 
L 348.382605 139.141997 
L 349.646355 139.497843 
L 350.910105 140.56501 
L 353.437604 141.341521 
L 354.701354 141.528204 
L 355.965103 141.857026 
L 358.492603 142.202531 
L 359.756352 138.235768 
L 361.020102 139.474014 
L 362.283852 140.41887 
L 364.811351 141.144205 
L 371.130099 141.63809 
L 372.393849 138.486811 
L 373.657599 138.707349 
L 374.921348 139.087898 
L 376.185098 139.124303 
L 377.448848 140.766133 
L 378.712597 141.430189 
L 379.976347 141.90752 
L 382.503846 142.376948 
L 383.767596 142.552062 
L 385.031346 139.008134 
L 386.295095 140.087601 
L 387.558845 140.750873 
L 391.350094 141.540745 
L 392.613844 141.883912 
L 396.405093 142.455805 
L 397.668842 139.279694 
L 398.932592 140.122487 
L 400.196342 140.513843 
L 401.460091 141.370933 
L 406.51509 142.293085 
L 407.77884 142.32572 
L 409.042589 142.558974 
L 410.306339 139.363182 
L 411.570089 140.086554 
L 412.833838 140.544114 
L 414.097588 140.701372 
L 416.625087 141.59434 
L 417.888837 142.190896 
L 419.152587 142.3971 
L 420.416336 142.482085 
L 421.680086 142.821322 
L 422.943836 139.361559 
L 424.207585 140.348077 
L 425.471335 140.974426 
L 433.053833 142.456137 
L 434.317583 142.605382 
L 435.581332 139.531532 
L 436.845082 140.336305 
L 438.108832 140.712999 
L 439.372581 141.512896 
L 441.900081 142.106545 
L 444.42758 142.44683 
L 445.69133 142.638004 
L 446.955079 142.663727 
L 448.218829 139.344329 
L 449.482579 139.960257 
L 450.746328 140.119101 
L 452.010078 141.469897 
L 453.273828 141.858451 
L 454.537577 142.094731 
L 458.328826 142.396371 
L 459.592576 142.710015 
L 460.856326 139.917306 
L 462.120075 140.728233 
L 463.383825 141.371123 
L 465.911324 141.959168 
L 467.175074 142.088777 
L 468.438824 142.351022 
L 472.230073 142.638641 
L 473.493822 139.392753 
L 474.757572 140.435152 
L 476.021322 141.164537 
L 477.285071 141.528555 
L 482.34007 142.458498 
L 484.867569 142.728854 
L 486.131319 139.5367 
L 487.395069 139.881818 
L 489.922568 140.878854 
L 491.186318 141.121165 
L 492.450067 141.833374 
L 493.713817 142.275862 
L 496.241316 142.700602 
L 497.505066 142.777198 
L 498.768816 139.7574 
L 500.032565 140.727094 
L 501.296315 141.309841 
L 508.878813 142.679941 
L 510.142562 142.792009 
L 511.406312 140.097328 
L 512.670062 141.193623 
L 513.933811 141.654574 
L 516.461311 142.167251 
L 522.780059 142.97023 
L 524.043809 140.450382 
L 525.307558 141.366815 
L 527.835058 142.235199 
L 535.417556 143.091316 
L 536.681305 140.141495 
L 539.208805 141.751351 
L 541.736304 142.241686 
L 545.527553 142.742959 
L 548.055052 142.977613 
L 549.318802 140.305436 
L 550.582552 141.067467 
L 551.846301 141.318152 
L 553.110051 142.098363 
L 554.373801 142.431913 
L 560.692549 143.177188 
L 561.956299 140.565102 
L 563.220048 141.359467 
L 564.483798 141.731994 
L 565.747548 141.93752 
L 568.275047 142.07207 
L 569.538797 142.40934 
L 570.802546 142.607089 
L 572.066296 143.075658 
L 573.330046 143.294185 
L 574.593795 140.416168 
L 575.857545 141.378601 
L 577.121295 142.089072 
L 578.385044 142.563417 
L 580.912544 142.940383 
L 585.967542 143.542827 
L 587.231292 140.745111 
L 588.495042 141.695967 
L 589.758791 142.298697 
L 592.286291 142.809025 
L 594.81379 143.163665 
L 598.605039 143.555987 
L 599.868789 140.849924 
L 601.132538 141.891919 
L 602.396288 142.405458 
L 604.923787 142.923268 
L 607.451287 143.34653 
L 608.715036 143.435399 
L 609.978786 143.651473 
L 611.242536 143.696752 
L 612.506285 140.890046 
L 613.770035 141.86972 
L 615.033785 142.418001 
L 616.297534 142.756635 
L 618.825034 143.140688 
L 623.880032 143.764136 
L 625.143782 141.024376 
L 626.407532 142.038854 
L 627.671281 142.587951 
L 630.198781 143.123557 
L 632.72628 143.571564 
L 633.99003 143.628133 
L 635.253779 143.810525 
L 636.517529 143.820379 
L 637.781279 140.668893 
L 639.045028 141.715421 
L 640.308778 142.339343 
L 645.363777 143.570271 
L 646.627526 143.875524 
L 647.891276 143.888454 
L 649.155026 144.05341 
L 650.418775 141.007288 
L 651.682525 142.065828 
L 652.946275 142.602537 
L 654.210024 143.009248 
L 656.737524 143.358122 
L 661.792522 144.131902 
L 663.056272 141.247561 
L 664.320022 142.286254 
L 666.847521 142.996268 
L 668.11127 143.091624 
L 669.37502 143.375468 
L 670.63877 143.53557 
L 673.166269 144.036211 
L 674.430019 144.233651 
L 675.693768 141.292598 
L 676.957518 142.502666 
L 679.485017 143.231463 
L 680.748767 143.364041 
L 683.276266 143.829496 
L 685.803766 144.171842 
L 687.067515 144.440139 
L 688.331265 141.098619 
L 689.595015 141.424917 
L 692.122514 143.015212 
L 695.913763 143.718475 
L 698.441262 144.312595 
L 699.705012 144.492969 
L 700.968762 141.427108 
L 702.232511 142.306622 
L 703.496261 143.029771 
L 706.02376 143.728817 
L 712.342509 144.646014 
L 713.606258 141.543554 
L 713.606258 141.543554 
" clip-path="url(#paa39b83f3f)" style="fill: none; stroke: #17becf; stroke-width: 2; stroke-linecap: square"/>
   </g>
   <g id="patch_3">
    <path d="M 50.137685 274.84 
L 50.137685 26.88 
" style="fill: none; stroke: #000000; stroke-width: 0.8; stroke-linejoin: miter; stroke-linecap: square"/>
   </g>
   <g id="patch_4">
    <path d="M 745.2 274.84 
L 745.2 26.88 
" style="fill: none; stroke: #000000; stroke-width: 0.8; stroke-linejoin: miter; stroke-linecap: square"/>
   </g>
   <g id="patch_5">
    <path d="M 50.137685 274.84 
L 745.2 274.84 
" style="fill: none; stroke: #000000; stroke-width: 0.8; stroke-linejoin: miter; stroke-linecap: square"/>
   </g>
   <g id="patch_6">
    <path d="M 50.137685 26.88 
L 745.2 26.88 
" style="fill: none; stroke: #000000; stroke-width: 0.8; stroke-linejoin: miter; stroke-linecap: square"/>
   </g>
   <g id="text_14">
    <!-- Canonical embedding gallery: TPE descent -->
    <g transform="translate(269.69353 20.88) scale(0.12 -0.12)">
     <defs>
      <path id="DejaVuSans-43" d="M 4122 4306 
L 4122 3641 
Q 3803 3938 3442 4084 
Q 3081 4231 2675 4231 
Q 1875 4231 1450 3742 
Q 1025 3253 1025 2328 
Q 1025 1406 1450 917 
Q 1875 428 2675 428 
Q 3081 428 3442 575 
Q 3803 722 4122 1019 
L 4122 359 
Q 3791 134 3420 21 
Q 3050 -91 2638 -91 
Q 1578 -91 968 557 
Q 359 1206 359 2328 
Q 359 3453 968 4101 
Q 1578 4750 2638 4750 
Q 3056 4750 3426 4639 
Q 3797 4528 4122 4306 
z
" transform="scale(0.015625)"/>
      <path id="DejaVuSans-6d" d="M 3328 2828 
Q 3544 3216 3844 3400 
Q 4144 3584 4550 3584 
Q 5097 3584 5394 3201 
Q 5691 2819 5691 2113 
L 5691 0 
L 5113 0 
L 5113 2094 
Q 5113 2597 4934 2840 
Q 4756 3084 4391 3084 
Q 3944 3084 3684 2787 
Q 3425 2491 3425 1978 
L 3425 0 
L 2847 0 
L 2847 2094 
Q 2847 2600 2669 2842 
Q 2491 3084 2119 3084 
Q 1678 3084 1418 2786 
Q 1159 2488 1159 1978 
L 1159 0 
L 581 0 
L 581 3500 
L 1159 3500 
L 1159 2956 
Q 1356 3278 1631 3431 
Q 1906 3584 2284 3584 
Q 2666 3584 2933 3390 
Q 3200 3197 3328 2828 
z
" transform="scale(0.015625)"/>
      <path id="DejaVuSans-62" d="M 3116 1747 
Q 3116 2381 2855 2742 
Q 2594 3103 2138 3103 
Q 1681 3103 1420 2742 
Q 1159 2381 1159 1747 
Q 1159 1113 1420 752 
Q 1681 391 2138 391 
Q 2594 391 2855 752 
Q 3116 1113 3116 1747 
z
M 1159 2969 
Q 1341 3281 1617 3432 
Q 1894 3584 2278 3584 
Q 2916 3584 3314 3078 
Q 3713 2572 3713 1747 
Q 3713 922 3314 415 
Q 2916 -91 2278 -91 
Q 1894 -91 1617 61 
Q 1341 213 1159 525 
L 1159 0 
L 581 0 
L 581 4863 
L 1159 4863 
L 1159 2969 
z
" transform="scale(0.015625)"/>
      <path id="DejaVuSans-64" d="M 2906 2969 
L 2906 4863 
L 3481 4863 
L 3481 0 
L 2906 0 
L 2906 525 
Q 2725 213 2448 61 
Q 2172 -91 1784 -91 
Q 1150 -91 751 415 
Q 353 922 353 1747 
Q 353 2572 751 3078 
Q 1150 3584 1784 3584 
Q 2172 3584 2448 3432 
Q 2725 3281 2906 2969 
z
M 947 1747 
Q 947 1113 1208 752 
Q 1469 391 1925 391 
Q 2381 391 2643 752 
Q 2906 1113 2906 1747 
Q 2906 2381 2643 2742 
Q 2381 3103 1925 3103 
Q 1469 3103 1208 2742 
Q 947 2381 947 1747 
z
" transform="scale(0.015625)"/>
      <path id="DejaVuSans-3a" d="M 750 794 
L 1409 794 
L 1409 0 
L 750 0 
L 750 794 
z
M 750 3309 
L 1409 3309 
L 1409 2516 
L 750 2516 
L 750 3309 
z
" transform="scale(0.015625)"/>
      <path id="DejaVuSans-54" d="M -19 4666 
L 3928 4666 
L 3928 4134 
L 2272 4134 
L 2272 0 
L 1638 0 
L 1638 4134 
L -19 4134 
L -19 4666 
z
" transform="scale(0.015625)"/>
      <path id="DejaVuSans-50" d="M 1259 4147 
L 1259 2394 
L 2053 2394 
Q 2494 2394 2734 2622 
Q 2975 2850 2975 3272 
Q 2975 3691 2734 3919 
Q 2494 4147 2053 4147 
L 1259 4147 
z
M 628 4666 
L 2053 4666 
Q 2838 4666 3239 4311 
Q 3641 3956 3641 3272 
Q 3641 2581 3239 2228 
Q 2838 1875 2053 1875 
L 1259 1875 
L 1259 0 
L 628 0 
L 628 4666 
z
" transform="scale(0.015625)"/>
      <path id="DejaVuSans-45" d="M 628 4666 
L 3578 4666 
L 3578 4134 
L 1259 4134 
L 1259 2753 
L 3481 2753 
L 3481 2222 
L 1259 2222 
L 1259 531 
L 3634 531 
L 3634 0 
L 628 0 
L 628 4666 
z
" transform="scale(0.015625)"/>
     </defs>
     <use xlink:href="#DejaVuSans-43"/>
     <use xlink:href="#DejaVuSans-61" transform="translate(69.824219 0)"/>
     <use xlink:href="#DejaVuSans-6e" transform="translate(131.103516 0)"/>
     <use xlink:href="#DejaVuSans-6f" transform="translate(194.482422 0)"/>
     <use xlink:href="#DejaVuSans-6e" transform="translate(255.664062 0)"/>
     <use xlink:href="#DejaVuSans-69" transform="translate(319.042969 0)"/>
     <use xlink:href="#DejaVuSans-63" transform="translate(346.826172 0)"/>
     <use xlink:href="#DejaVuSans-61" transform="translate(401.806641 0)"/>
     <use xlink:href="#DejaVuSans-6c" transform="translate(463.085938 0)"/>
     <use xlink:href="#DejaVuSans-20" transform="translate(490.869141 0)"/>
     <use xlink:href="#DejaVuSans-65" transform="translate(522.65625 0)"/>
     <use xlink:href="#DejaVuSans-6d" transform="translate(584.179688 0)"/>
     <use xlink:href="#DejaVuSans-62" transform="translate(681.591797 0)"/>
     <use xlink:href="#DejaVuSans-65" transform="translate(745.068359 0)"/>
     <use xlink:href="#DejaVuSans-64" transform="translate(806.591797 0)"/>
     <use xlink:href="#DejaVuSans-64" transform="translate(870.068359 0)"/>
     <use xlink:href="#DejaVuSans-69" transform="translate(933.544922 0)"/>
     <use xlink:href="#DejaVuSans-6e" transform="translate(961.328125 0)"/>
     <use xlink:href="#DejaVuSans-67" transform="translate(1024.707031 0)"/>
     <use xlink:href="#DejaVuSans-20" transform="translate(1088.183594 0)"/>
     <use xlink:href="#DejaVuSans-67" transform="translate(1119.970703 0)"/>
     <use xlink:href="#DejaVuSans-61" transform="translate(1183.447266 0)"/>
     <use xlink:href="#DejaVuSans-6c" transform="translate(1244.726562 0)"/>
     <use xlink:href="#DejaVuSans-6c" transform="translate(1272.509766 0)"/>
     <use xlink:href="#DejaVuSans-65" transform="translate(1300.292969 0)"/>
     <use xlink:href="#DejaVuSans-72" transform="translate(1361.816406 0)"/>
     <use xlink:href="#DejaVuSans-79" transform="translate(1402.929688 0)"/>
     <use xlink:href="#DejaVuSans-3a" transform="translate(1454.859375 0)"/>
     <use xlink:href="#DejaVuSans-20" transform="translate(1488.550781 0)"/>
     <use xlink:href="#DejaVuSans-54" transform="translate(1520.337891 0)"/>
     <use xlink:href="#DejaVuSans-50" transform="translate(1581.421875 0)"/>
     <use xlink:href="#DejaVuSans-45" transform="translate(1641.724609 0)"/>
     <use xlink:href="#DejaVuSans-20" transform="translate(1704.908203 0)"/>
     <use xlink:href="#DejaVuSans-64" transform="translate(1736.695312 0)"/>
     <use xlink:href="#DejaVuSans-65" transform="translate(1800.171875 0)"/>
     <use xlink:href="#DejaVuSans-73" transform="translate(1861.695312 0)"/>
     <use xlink:href="#DejaVuSans-63" transform="translate(1913.794922 0)"/>
     <use xlink:href="#DejaVuSans-65" transform="translate(1968.775391 0)"/>
     <use xlink:href="#DejaVuSans-6e" transform="translate(2030.298828 0)"/>
     <use xlink:href="#DejaVuSans-74" transform="translate(2093.677734 0)"/>
    </g>
   </g>
   <g id="legend_1">
    <g id="line2d_69">
     <path d="M 492.420313 39.978438 
L 502.420313 39.978438 
L 512.420313 39.978438 
" style="fill: none; stroke: #1f77b4; stroke-width: 2; stroke-linecap: square"/>
    </g>
    <g id="text_15">
     <!-- genus 0 -->
     <g transform="translate(520.420313 43.478438) scale(0.1 -0.1)">
      <defs>
       <path id="DejaVuSans-75" d="M 544 1381 
L 544 3500 
L 1119 3500 
L 1119 1403 
Q 1119 906 1312 657 
Q 1506 409 1894 409 
Q 2359 409 2629 706 
Q 2900 1003 2900 1516 
L 2900 3500 
L 3475 3500 
L 3475 0 
L 2900 0 
L 2900 538 
Q 2691 219 2414 64 
Q 2138 -91 1772 -91 
Q 1169 -91 856 284 
Q 544 659 544 1381 
z
M 1991 3584 
L 1991 3584 
z
" transform="scale(0.015625)"/>
      </defs>
      <use xlink:href="#DejaVuSans-67"/>
      <use xlink:href="#DejaVuSans-65" transform="translate(63.476562 0)"/>
      <use xlink:href="#DejaVuSans-6e" transform="translate(125 0)"/>
      <use xlink:href="#DejaVuSans-75" transform="translate(188.378906 0)"/>
      <use xlink:href="#DejaVuSans-73" transform="translate(251.757812 0)"/>
      <use xlink:href="#DejaVuSans-20" transform="translate(303.857422 0)"/>
      <use xlink:href="#DejaVuSans-30" transform="translate(335.644531 0)"/>
     </g>
    </g>
    <g id="line2d_70">
     <path d="M 492.420313 54.656563 
L 502.420313 54.656563 
L 512.420313 54.656563 
" style="fill: none; stroke: #d62728; stroke-width: 2; stroke-linecap: square"/>
    </g>
    <g id="text_16">
     <!-- genus 1 -->
     <g transform="translate(520.420313 58.156563) scale(0.1 -0.1)">
      <use xlink:href="#DejaVuSans-67"/>
      <use xlink:href="#DejaVuSans-65" transform="translate(63.476562 0)"/>
      <use xlink:href="#DejaVuSans-6e" transform="translate(125 0)"/>
      <use xlink:href="#DejaVuSans-75" transform="translate(188.378906 0)"/>
      <use xlink:href="#DejaVuSans-73" transform="translate(251.757812 0)"/>
      <use xlink:href="#DejaVuSans-20" transform="translate(303.857422 0)"/>
      <use xlink:href="#DejaVuSans-31" transform="translate(335.644531 0)"/>
     </g>
    </g>
    <g id="line2d_71">
     <path d="M 580.346875 39.978438 
L 590.346875 39.978438 
L 600.346875 39.978438 
" style="fill: none; stroke: #2ca02c; stroke-width: 2; stroke-linecap: square"/>
    </g>
    <g id="text_17">
     <!-- genus 2 -->
     <g transform="translate(608.346875 43.478438) scale(0.1 -0.1)">
      <use xlink:href="#DejaVuSans-67"/>
      <use xlink:href="#DejaVuSans-65" transform="translate(63.476562 0)"/>
      <use xlink:href="#DejaVuSans-6e" transform="translate(125 0)"/>
      <use xlink:href="#DejaVuSans-75" transform="translate(188.378906 0)"/>
      <use xlink:href="#DejaVuSans-73" transform="translate(251.757812 0)"/>
      <use xlink:href="#DejaVuSans-20" transform="translate(303.857422 0)"/>
      <use xlink:href="#DejaVuSans-32" transform="translate(335.644531 0)"/>
     </g>
    </g>
    <g id="line2d_72">
     <path d="M 580.346875 54.656563 
L 590.346875 54.656563 
L 600.346875 54.656563 
" style="fill: none; stroke: #9467bd; stroke-width: 2; stroke-linecap: square"/>
    </g>
    <g id="text_18">
     <!-- genus 3 -->
     <g transform="translate(608.346875 58.156563) scale(0.1 -0.1)">
      <use xlink:href="#DejaVuSans-67"/>
      <use xlink:href="#DejaVuSans-65" transform="translate(63.476562 0)"/>
      <use xlink:href="#DejaVuSans-6e" transform="translate(125 0)"/>
      <use xlink:href="#DejaVuSans-75" transform="translate(188.378906 0)"/>
      <use xlink:href="#DejaVuSans-73" transform="translate(251.757812 0)"/>
      <use xlink:href="#DejaVuSans-20" transform="translate(303.857422 0)"/>
      <use xlink:href="#DejaVuSans-33" transform="translate(335.644531 0)"/>
     </g>
    </g>
    <g id="line2d_73">
     <path d="M 668.273438 39.978438 
L 678.273438 39.978438 
L 688.273438 39.978438 
" style="fill: none; stroke: #ff7f0e; stroke-width: 2; stroke-linecap: square"/>
    </g>
    <g id="text_19">
     <!-- genus 4 -->
     <g transform="translate(696.273438 43.478438) scale(0.1 -0.1)">
      <use xlink:href="#DejaVuSans-67"/>
      <use xlink:href="#DejaVuSans-65" transform="translate(63.476562 0)"/>
      <use xlink:href="#DejaVuSans-6e" transform="translate(125 0)"/>
      <use xlink:href="#DejaVuSans-75" transform="translate(188.378906 0)"/>
      <use xlink:href="#DejaVuSans-73" transform="translate(251.757812 0)"/>
      <use xlink:href="#DejaVuSans-20" transform="translate(303.857422 0)"/>
      <use xlink:href="#DejaVuSans-34" transform="translate(335.644531 0)"/>
     </g>
    </g>
    <g id="line2d_74">
     <path d="M 668.273438 54.656563 
L 678.273438 54.656563 
L 688.273438 54.656563 
" style="fill: none; stroke: #17becf; stroke-width: 2; stroke-linecap: square"/>
    </g>
    <g id="text_20">
     <!-- genus 5 -->
     <g transform="translate(696.273438 58.156563) scale(0.1 -0.1)">
      <use xlink:href="#DejaVuSans-67"/>
      <use xlink:href="#DejaVuSans-65" transform="translate(63.476562 0)"/>
      <use xlink:href="#DejaVuSans-6e" transform="translate(125 0)"/>
      <use xlink:href="#DejaVuSans-75" transform="translate(188.378906 0)"/>
      <use xlink:href="#DejaVuSans-73" transform="translate(251.757812 0)"/>
      <use xlink:href="#DejaVuSans-20" transform="translate(303.857422 0)"/>
      <use xlink:href="#DejaVuSans-35" transform="translate(335.644531 0)"/>
     </g>
    </g>
   </g>
  </g>
 </g>
 <defs>
  <clipPath id="paa39b83f3f">
   <rect x="50.137685" y="26.88" width="695.062315" height="247.96"/>
  </clipPath>
 </defs>
</svg>
