<svg xmlns="http://www.w3.org/2000/svg" width="1100" height="360" viewBox="0 0 1100 360">
  <rect width="100%" height="100%" fill="#f8fafc"/>
  <text x="550.0" y="22" text-anchor="middle" font-size="16" fill="#1e2a38" font-family="Alegreya Sans, sans-serif">Phase 1 L2 flow baseline energy trend</text>
  <line x1="70" y1="305.00" x2="1070" y2="305.00" stroke="#d7dde6" stroke-width="1"/><text x="62" y="309.00" text-anchor="end" font-size="11" fill="#4a5568">41</text><line x1="70" y1="251.00" x2="1070" y2="251.00" stroke="#d7dde6" stroke-width="1"/><text x="62" y="255.00" text-anchor="end" font-size="11" fill="#4a5568">69</text><line x1="70" y1="197.00" x2="1070" y2="197.00" stroke="#d7dde6" stroke-width="1"/><text x="62" y="201.00" text-anchor="end" font-size="11" fill="#4a5568">97.1</text><line x1="70" y1="143.00" x2="1070" y2="143.00" stroke="#d7dde6" stroke-width="1"/><text x="62" y="147.00" text-anchor="end" font-size="11" fill="#4a5568">125</text><line x1="70" y1="89.00" x2="1070" y2="89.00" stroke="#d7dde6" stroke-width="1"/><text x="62" y="93.00" text-anchor="end" font-size="11" fill="#4a5568">153</text><line x1="70" y1="35.00" x2="1070" y2="35.00" stroke="#d7dde6" stroke-width="1"/><text x="62" y="39.00" text-anchor="end" font-size="11" fill="#4a5568">181</text><line x1="70.00" y1="35" x2="70.00" y2="305" stroke="#eef2f7" stroke-width="1"/><text x="70.00" y="323" text-anchor="middle" font-size="11" fill="#4a5568">0</text><line x1="270.00" y1="35" x2="270.00" y2="305" stroke="#eef2f7" stroke-width="1"/><text x="270.00" y="323" text-anchor="middle" font-size="11" fill="#4a5568">30</text><line x1="470.00" y1="35" x2="470.00" y2="305" stroke="#eef2f7" stroke-width="1"/><text x="470.00" y="323" text-anchor="middle" font-size="11" fill="#4a5568">60</text><line x1="670.00" y1="35" x2="670.00" y2="305" stroke="#eef2f7" stroke-width="1"/><text x="670.00" y="323" text-anchor="middle" font-size="11" fill="#4a5568">89</text><line x1="870.00" y1="35" x2="870.00" y2="305" stroke="#eef2f7" stroke-width="1"/><text x="870.00" y="323" text-anchor="middle" font-size="11" fill="#4a5568">119</text><line x1="1070.00" y1="35" x2="1070.00" y2="305" stroke="#eef2f7" stroke-width="1"/><text x="1070.00" y="323" text-anchor="middle" font-size="11" fill="#4a5568">149</text>
  <polyline fill="none" stroke="#2f6db5" stroke-width="2.2" points="70.00,35.00 76.71,41.16 83.42,77.42 90.13,90.97 96.85,95.00 103.56,106.17 110.27,108.24 116.98,118.41 123.69,121.41 130.40,128.39 137.11,128.53 143.83,134.71 150.54,137.86 157.25,140.36 163.96,146.44 170.67,144.29 177.38,153.44 184.09,157.51 190.81,160.08 197.52,161.94 204.23,166.28 210.94,167.09 217.65,172.09 224.36,175.38 231.07,179.89 237.79,182.97 244.50,186.47 251.21,187.12 257.92,188.24 264.63,189.78 271.34,190.87 278.05,194.99 284.77,196.25 291.48,198.52 298.19,199.76 304.90,201.87 311.61,202.94 318.32,205.72 325.03,206.68 331.74,209.50 338.46,210.40 345.17,212.39 351.88,214.14 358.59,214.10 365.30,215.34 372.01,215.08 378.72,220.50 385.44,221.24 392.15,222.49 398.86,224.58 405.57,228.07 412.28,229.43 418.99,231.21 425.70,231.65 432.42,233.42 439.13,234.17 445.84,234.48 452.55,236.82 459.26,238.13 465.97,240.01 472.68,241.43 479.40,243.53 486.11,244.80 492.82,246.39 499.53,247.43 506.24,248.23 512.95,248.86 519.66,249.14 526.38,250.82 533.09,251.79 539.80,253.36 546.51,253.73 553.22,255.44 559.93,256.01 566.64,257.49 573.36,258.33 580.07,258.97 586.78,259.85 593.49,260.88 600.20,261.97 606.91,263.31 613.62,264.78 620.34,263.50 627.05,266.57 633.76,266.89 640.47,268.43 647.18,268.24 653.89,268.58 660.60,270.50 667.32,271.39 674.03,271.26 680.74,273.76 687.45,274.37 694.16,275.45 700.87,275.99 707.58,276.08 714.30,278.07 721.01,278.86 727.72,279.97 734.43,280.39 741.14,281.20 747.85,282.09 754.56,282.04 761.28,282.54 767.99,282.90 774.70,283.72 781.41,284.35 788.12,284.67 794.83,285.11 801.54,286.16 808.26,287.37 814.97,287.67 821.68,288.46 828.39,288.43 835.10,289.38 841.81,291.92 848.52,289.80 855.23,290.68 861.95,290.88 868.66,291.37 875.37,292.04 882.08,292.67 888.79,293.04 895.50,293.52 902.21,293.97 908.93,294.43 915.64,294.51 922.35,298.02 929.06,295.76 935.77,298.05 942.48,295.31 949.19,299.68 955.91,297.07 962.62,300.37 969.33,297.77 976.04,300.88 982.75,298.47 989.46,300.80 996.17,299.76 1002.89,300.59 1009.60,300.62 1016.31,300.60 1023.02,302.62 1029.73,302.04 1036.44,303.09 1043.15,303.23 1049.87,303.88 1056.58,303.83 1063.29,303.97 1070.00,305.00"/>
  <circle cx="70.00" cy="35.00" r="3.5" fill="#9b2c2c"/>
  <circle cx="1070.00" cy="305.00" r="3.5" fill="#2f855a"/>
  <text x="70" y="27" font-size="11" fill="#9b2c2c">start: 181.4</text>
  <text x="1070" y="27" text-anchor="end" font-size="11" fill="#2f855a">end: 40.96</text>
  <text x="550.0" y="350" text-anchor="middle" font-size="12" fill="#1e2a38">iteration</text>
  <text x="18" y="180.0" transform="rotate(-90 18,180.0)" text-anchor="middle" font-size="12" fill="#1e2a38">energy</text>
</svg>