<svg xmlns="http://www.w3.org/2000/svg" width="1100" height="360" viewBox="0 0 1100 360">
  <rect width="100%" height="100%" fill="#f8fafc"/>
  <text x="550.0" y="22" text-anchor="middle" font-size="16" fill="#1e2a38" font-family="Alegreya Sans, sans-serif">Phase 2 H^s flow energy trend</text>
  <line x1="70" y1="305.00" x2="1070" y2="305.00" stroke="#d7dde6" stroke-width="1"/><text x="62" y="309.00" text-anchor="end" font-size="11" fill="#4a5568">31.4</text><line x1="70" y1="251.00" x2="1070" y2="251.00" stroke="#d7dde6" stroke-width="1"/><text x="62" y="255.00" text-anchor="end" font-size="11" fill="#4a5568">62.2</text><line x1="70" y1="197.00" x2="1070" y2="197.00" stroke="#d7dde6" stroke-width="1"/><text x="62" y="201.00" text-anchor="end" font-size="11" fill="#4a5568">93</text><line x1="70" y1="143.00" x2="1070" y2="143.00" stroke="#d7dde6" stroke-width="1"/><text x="62" y="147.00" text-anchor="end" font-size="11" fill="#4a5568">124</text><line x1="70" y1="89.00" x2="1070" y2="89.00" stroke="#d7dde6" stroke-width="1"/><text x="62" y="93.00" text-anchor="end" font-size="11" fill="#4a5568">155</text><line x1="70" y1="35.00" x2="1070" y2="35.00" stroke="#d7dde6" stroke-width="1"/><text x="62" y="39.00" text-anchor="end" font-size="11" fill="#4a5568">185</text><line x1="70.00" y1="35" x2="70.00" y2="305" stroke="#eef2f7" stroke-width="1"/><text x="70.00" y="323" text-anchor="middle" font-size="11" fill="#4a5568">0</text><line x1="270.00" y1="35" x2="270.00" y2="305" stroke="#eef2f7" stroke-width="1"/><text x="270.00" y="323" text-anchor="middle" font-size="11" fill="#4a5568">200</text><line x1="470.00" y1="35" x2="470.00" y2="305" stroke="#eef2f7" stroke-width="1"/><text x="470.00" y="323" text-anchor="middle" font-size="11" fill="#4a5568">400</text><line x1="670.00" y1="35" x2="670.00" y2="305" stroke="#eef2f7" stroke-width="1"/><text x="670.00" y="323" text-anchor="middle" font-size="11" fill="#4a5568">599</text><line x1="870.00" y1="35" x2="870.00" y2="305" stroke="#eef2f7" stroke-width="1"/><text x="870.00" y="323" text-anchor="middle" font-size="11" fill="#4a5568">799</text><line x1="1070.00" y1="35" x2="1070.00" y2="305" stroke="#eef2f7" stroke-width="1"/><text x="1070.00" y="323" text-anchor="middle" font-size="11" fill="#4a5568">999</text>
  <polyline fill="none" stroke="#2f6db5" stroke-width="2.2" points="70.00,35.00 71.00,51.45 72.00,56.28 73.00,69.43 74.00,73.40 75.01,76.68 76.01,81.53 77.01,81.59 78.01,88.62 79.01,95.28 80.01,97.91 81.01,99.37 82.01,105.14 83.01,108.13 84.01,111.72 85.02,115.22 86.02,116.06 87.02,116.39 88.02,123.01 89.02,126.16 90.02,126.71 91.02,127.67 92.02,133.30 93.02,136.16 94.02,137.94 95.03,140.55 96.03,141.73 97.03,143.73 98.03,144.60 99.03,146.59 100.03,146.81 101.03,146.99 102.03,154.62 103.03,156.79 104.03,159.13 105.04,161.19 106.04,162.69 107.04,164.78 108.04,166.25 109.04,168.06 110.04,168.22 111.04,169.86 112.04,171.99 113.04,174.22 114.04,175.67 115.05,177.42 116.05,179.01 117.05,180.00 118.05,181.89 119.05,183.77 120.05,185.18 121.05,186.68 122.05,188.23 123.05,188.61 124.05,190.86 125.06,192.72 126.06,193.40 127.06,195.43 128.06,195.76 129.06,197.70 130.06,199.26 131.06,200.74 132.06,201.89 133.06,203.41 134.06,203.87 135.07,205.61 136.07,206.15 137.07,207.83 138.07,208.24 139.07,210.22 140.07,210.80 141.07,212.41 142.07,213.25 143.07,213.39 144.07,215.63 145.08,216.41 146.08,217.63 147.08,218.64 148.08,219.43 149.08,220.60 150.08,221.56 151.08,222.34 152.08,222.57 153.08,224.37 154.08,225.12 155.09,225.62 156.09,227.06 157.09,227.92 158.09,228.09 159.09,230.32 160.09,231.00 161.09,231.60 162.09,231.71 163.09,233.64 164.09,234.38 165.10,235.15 166.10,235.79 167.10,236.30 168.10,236.60 169.10,238.28 170.10,238.98 171.10,239.85 172.10,240.26 173.10,240.32 174.10,242.44 175.11,243.09 176.11,244.29 177.11,244.88 178.11,245.50 179.11,246.08 180.11,246.66 181.11,247.23 182.11,247.76 183.11,248.34 184.11,248.86 185.12,249.44 186.12,249.96 187.12,250.54 188.12,251.06 189.12,251.65 190.12,252.20 191.12,252.79 192.12,253.37 193.12,253.97 194.12,254.56 195.13,255.17 196.13,255.74 197.13,256.32 198.13,256.87 199.13,257.41 200.13,257.92 201.13,258.16 202.13,258.85 203.13,259.47 204.13,260.04 205.14,260.58 206.14,261.07 207.14,261.35 208.14,262.03 209.14,262.62 210.14,263.13 211.14,263.21 212.14,263.99 213.14,264.59 214.14,265.09 215.15,265.21 216.15,265.98 217.15,266.54 218.15,266.99 219.15,267.36 220.15,267.96 221.15,268.40 222.15,268.77 223.15,269.34 224.15,269.34 225.16,270.13 226.16,270.66 227.16,270.83 228.16,271.52 229.16,271.97 230.16,272.30 231.16,272.83 232.16,273.03 233.16,273.66 234.16,273.66 235.17,274.43 236.17,274.86 237.17,275.24 238.17,275.68 239.17,276.04 240.17,276.44 241.17,276.66 242.17,277.14 243.17,277.56 244.17,277.77 245.18,278.30 246.18,278.55 247.18,279.04 248.18,279.32 249.18,279.74 250.18,280.01 251.18,280.42 252.18,280.71 253.18,281.09 254.18,281.40 255.19,281.46 256.19,282.08 257.19,282.17 258.19,282.73 259.19,282.89 260.19,283.35 261.19,283.58 262.19,283.95 263.19,284.24 264.19,284.39 265.20,284.87 266.20,285.11 267.20,285.44 268.20,285.74 269.20,285.94 270.20,286.30 271.20,286.58 272.20,286.76 273.20,287.14 274.20,287.41 275.21,287.58 276.21,287.95 277.21,288.22 278.21,288.43 279.21,288.48 280.21,289.01 281.21,289.24 282.21,289.40 283.21,289.75 284.21,289.99 285.22,290.22 286.22,290.35 287.22,290.71 288.22,290.94 289.22,291.15 290.22,291.25 291.22,291.62 292.22,291.84 293.22,292.04 294.22,292.14 295.23,292.49 296.23,292.70 297.23,292.90 298.23,293.04 299.23,293.08 300.23,293.52 301.23,293.71 302.23,293.89 303.23,294.01 304.23,294.02 305.24,294.49 306.24,294.67 307.24,294.84 308.24,294.98 309.24,295.06 310.24,295.38 311.24,295.54 312.24,295.70 313.24,295.81 314.24,295.87 315.25,296.19 316.25,296.35 317.25,296.40 318.25,296.47 319.25,296.95 320.25,297.09 321.25,297.30 322.25,297.41 323.25,297.52 324.25,297.61 325.26,297.67 326.26,297.72 327.26,298.18 328.26,298.30 329.26,298.52 330.26,298.63 331.26,298.75 332.26,298.86 333.26,298.97 334.26,299.07 335.27,299.18 336.27,299.28 337.27,299.38 338.27,299.48 339.27,299.58 340.27,299.68 341.27,299.78 342.27,299.87 343.27,299.97 344.27,300.06 345.28,300.16 346.28,300.25 347.28,300.35 348.28,300.44 349.28,300.54 350.28,300.63 351.28,300.72 352.28,300.82 353.28,300.91 354.28,301.00 355.29,301.08 356.29,301.17 357.29,301.25 358.29,301.33 359.29,301.40 360.29,301.48 361.29,301.55 362.29,301.57 363.29,301.66 364.29,301.75 365.30,301.83 366.30,301.91 367.30,301.98 368.30,302.05 369.30,302.11 370.30,302.17 371.30,302.19 372.30,302.28 373.30,302.35 374.30,302.42 375.31,302.47 376.31,302.53 377.31,302.58 378.31,302.62 379.31,302.68 380.31,302.75 381.31,302.80 382.31,302.85 383.31,302.86 384.31,302.93 385.32,302.98 386.32,303.04 387.32,303.08 388.32,303.12 389.32,303.14 390.32,303.20 391.32,303.25 392.32,303.29 393.32,303.33 394.32,303.36 395.33,303.38 396.33,303.42 397.33,303.47 398.33,303.50 399.33,303.54 400.33,303.56 401.33,303.58 402.33,303.62 403.33,303.66 404.33,303.69 405.34,303.72 406.34,303.74 407.34,303.77 408.34,303.79 409.34,303.83 410.34,303.85 411.34,303.86 412.34,303.89 413.34,303.92 414.34,303.94 415.35,303.95 416.35,303.98 417.35,304.01 418.35,304.03 419.35,304.05 420.35,304.05 421.35,304.09 422.35,304.11 423.35,304.13 424.35,304.14 425.36,304.16 426.36,304.18 427.36,304.20 428.36,304.21 429.36,304.23 430.36,304.24 431.36,304.24 432.36,304.26 433.36,304.29 434.36,304.30 435.37,304.30 436.37,304.32 437.37,304.34 438.37,304.35 439.37,304.36 440.37,304.37 441.37,304.38 442.37,304.39 443.37,304.40 444.37,304.41 445.38,304.41 446.38,304.43 447.38,304.44 448.38,304.45 449.38,304.46 450.38,304.47 451.38,304.47 452.38,304.48 453.38,304.49 454.38,304.50 455.39,304.50 456.39,304.51 457.39,304.51 458.39,304.52 459.39,304.53 460.39,304.54 461.39,304.54 462.39,304.55 463.39,304.56 464.39,304.56 465.40,304.57 466.40,304.57 467.40,304.58 468.40,304.58 469.40,304.58 470.40,304.59 471.40,304.60 472.40,304.60 473.40,304.61 474.40,304.61 475.41,304.61 476.41,304.62 477.41,304.62 478.41,304.62 479.41,304.63 480.41,304.63 481.41,304.63 482.41,304.64 483.41,304.64 484.41,304.64 485.42,304.65 486.42,304.65 487.42,304.65 488.42,304.65 489.42,304.66 490.42,304.66 491.42,304.66 492.42,304.67 493.42,304.67 494.42,304.67 495.43,304.67 496.43,304.68 497.43,304.68 498.43,304.68 499.43,304.68 500.43,304.68 501.43,304.69 502.43,304.69 503.43,304.69 504.43,304.69 505.44,304.69 506.44,304.69 507.44,304.70 508.44,304.70 509.44,304.70 510.44,304.70 511.44,304.70 512.44,304.70 513.44,304.70 514.44,304.71 515.45,304.71 516.45,304.71 517.45,304.71 518.45,304.71 519.45,304.71 520.45,304.71 521.45,304.71 522.45,304.72 523.45,304.72 524.45,304.72 525.46,304.72 526.46,304.72 527.46,304.72 528.46,304.72 529.46,304.72 530.46,304.72 531.46,304.73 532.46,304.73 533.46,304.73 534.46,304.73 535.47,304.73 536.47,304.73 537.47,304.73 538.47,304.73 539.47,304.73 540.47,304.73 541.47,304.73 542.47,304.73 543.47,304.74 544.47,304.74 545.48,304.74 546.48,304.74 547.48,304.74 548.48,304.74 549.48,304.74 550.48,304.74 551.48,304.74 552.48,304.74 553.48,304.74 554.48,304.74 555.49,304.74 556.49,304.74 557.49,304.75 558.49,304.75 559.49,304.75 560.49,304.75 561.49,304.75 562.49,304.75 563.49,304.75 564.49,304.75 565.50,304.75 566.50,304.75 567.50,304.75 568.50,304.75 569.50,304.75 570.50,304.75 571.50,304.75 572.50,304.75 573.50,304.76 574.50,304.76 575.51,304.76 576.51,304.76 577.51,304.76 578.51,304.76 579.51,304.76 580.51,304.76 581.51,304.76 582.51,304.76 583.51,304.76 584.51,304.76 585.52,304.76 586.52,304.76 587.52,304.76 588.52,304.76 589.52,304.76 590.52,304.76 591.52,304.77 592.52,304.77 593.52,304.77 594.52,304.77 595.53,304.77 596.53,304.77 597.53,304.77 598.53,304.77 599.53,304.77 600.53,304.77 601.53,304.77 602.53,304.77 603.53,304.77 604.53,304.77 605.54,304.77 606.54,304.77 607.54,304.77 608.54,304.78 609.54,304.78 610.54,304.78 611.54,304.78 612.54,304.78 613.54,304.78 614.54,304.78 615.55,304.78 616.55,304.78 617.55,304.78 618.55,304.78 619.55,304.78 620.55,304.78 621.55,304.78 622.55,304.78 623.55,304.78 624.55,304.78 625.56,304.79 626.56,304.79 627.56,304.79 628.56,304.79 629.56,304.79 630.56,304.79 631.56,304.79 632.56,304.79 633.56,304.79 634.56,304.79 635.57,304.79 636.57,304.79 637.57,304.79 638.57,304.79 639.57,304.79 640.57,304.79 641.57,304.80 642.57,304.80 643.57,304.80 644.57,304.80 645.58,304.80 646.58,304.80 647.58,304.80 648.58,304.80 649.58,304.80 650.58,304.80 651.58,304.80 652.58,304.80 653.58,304.80 654.58,304.80 655.59,304.80 656.59,304.80 657.59,304.80 658.59,304.81 659.59,304.81 660.59,304.81 661.59,304.81 662.59,304.81 663.59,304.81 664.59,304.81 665.60,304.81 666.60,304.81 667.60,304.81 668.60,304.81 669.60,304.81 670.60,304.81 671.60,304.81 672.60,304.81 673.60,304.81 674.60,304.81 675.61,304.82 676.61,304.82 677.61,304.82 678.61,304.82 679.61,304.82 680.61,304.82 681.61,304.82 682.61,304.82 683.61,304.82 684.61,304.82 685.62,304.82 686.62,304.82 687.62,304.82 688.62,304.82 689.62,304.82 690.62,304.82 691.62,304.82 692.62,304.82 693.62,304.82 694.62,304.83 695.63,304.83 696.63,304.83 697.63,304.83 698.63,304.83 699.63,304.83 700.63,304.83 701.63,304.83 702.63,304.83 703.63,304.83 704.63,304.83 705.64,304.83 706.64,304.83 707.64,304.83 708.64,304.83 709.64,304.83 710.64,304.84 711.64,304.84 712.64,304.84 713.64,304.84 714.64,304.84 715.65,304.84 716.65,304.84 717.65,304.84 718.65,304.84 719.65,304.84 720.65,304.84 721.65,304.84 722.65,304.84 723.65,304.84 724.65,304.84 725.66,304.84 726.66,304.84 727.66,304.85 728.66,304.85 729.66,304.85 730.66,304.85 731.66,304.85 732.66,304.85 733.66,304.85 734.66,304.85 735.67,304.85 736.67,304.85 737.67,304.85 738.67,304.85 739.67,304.85 740.67,304.85 741.67,304.85 742.67,304.85 743.67,304.85 744.67,304.86 745.68,304.86 746.68,304.86 747.68,304.86 748.68,304.86 749.68,304.86 750.68,304.86 751.68,304.86 752.68,304.86 753.68,304.86 754.68,304.86 755.69,304.86 756.69,304.86 757.69,304.86 758.69,304.86 759.69,304.86 760.69,304.86 761.69,304.86 762.69,304.87 763.69,304.87 764.69,304.87 765.70,304.87 766.70,304.87 767.70,304.87 768.70,304.87 769.70,304.87 770.70,304.87 771.70,304.87 772.70,304.87 773.70,304.87 774.70,304.87 775.71,304.87 776.71,304.87 777.71,304.87 778.71,304.87 779.71,304.87 780.71,304.87 781.71,304.88 782.71,304.88 783.71,304.88 784.71,304.88 785.72,304.88 786.72,304.88 787.72,304.88 788.72,304.88 789.72,304.88 790.72,304.88 791.72,304.88 792.72,304.88 793.72,304.88 794.72,304.88 795.73,304.88 796.73,304.88 797.73,304.88 798.73,304.88 799.73,304.88 800.73,304.88 801.73,304.89 802.73,304.89 803.73,304.89 804.73,304.89 805.74,304.89 806.74,304.89 807.74,304.89 808.74,304.89 809.74,304.89 810.74,304.89 811.74,304.89 812.74,304.89 813.74,304.89 814.74,304.89 815.75,304.89 816.75,304.89 817.75,304.89 818.75,304.89 819.75,304.89 820.75,304.89 821.75,304.90 822.75,304.90 823.75,304.90 824.75,304.90 825.76,304.90 826.76,304.90 827.76,304.90 828.76,304.90 829.76,304.90 830.76,304.90 831.76,304.90 832.76,304.90 833.76,304.90 834.76,304.90 835.77,304.90 836.77,304.90 837.77,304.90 838.77,304.90 839.77,304.90 840.77,304.90 841.77,304.90 842.77,304.90 843.77,304.91 844.77,304.91 845.78,304.91 846.78,304.91 847.78,304.91 848.78,304.91 849.78,304.91 850.78,304.91 851.78,304.91 852.78,304.91 853.78,304.91 854.78,304.91 855.79,304.91 856.79,304.91 857.79,304.91 858.79,304.91 859.79,304.91 860.79,304.91 861.79,304.91 862.79,304.91 863.79,304.91 864.79,304.92 865.80,304.92 866.80,304.92 867.80,304.92 868.80,304.92 869.80,304.92 870.80,304.92 871.80,304.92 872.80,304.92 873.80,304.92 874.80,304.92 875.81,304.92 876.81,304.92 877.81,304.92 878.81,304.92 879.81,304.92 880.81,304.92 881.81,304.92 882.81,304.92 883.81,304.92 884.81,304.92 885.82,304.92 886.82,304.93 887.82,304.93 888.82,304.93 889.82,304.93 890.82,304.93 891.82,304.93 892.82,304.93 893.82,304.93 894.82,304.93 895.83,304.93 896.83,304.93 897.83,304.93 898.83,304.93 899.83,304.93 900.83,304.93 901.83,304.93 902.83,304.93 903.83,304.93 904.83,304.93 905.84,304.93 906.84,304.93 907.84,304.93 908.84,304.93 909.84,304.93 910.84,304.94 911.84,304.94 912.84,304.94 913.84,304.94 914.84,304.94 915.85,304.94 916.85,304.94 917.85,304.94 918.85,304.94 919.85,304.94 920.85,304.94 921.85,304.94 922.85,304.94 923.85,304.94 924.85,304.94 925.86,304.94 926.86,304.94 927.86,304.94 928.86,304.94 929.86,304.94 930.86,304.94 931.86,304.94 932.86,304.94 933.86,304.95 934.86,304.95 935.87,304.95 936.87,304.95 937.87,304.95 938.87,304.95 939.87,304.95 940.87,304.95 941.87,304.95 942.87,304.95 943.87,304.95 944.87,304.95 945.88,304.95 946.88,304.95 947.88,304.95 948.88,304.95 949.88,304.95 950.88,304.95 951.88,304.95 952.88,304.95 953.88,304.95 954.88,304.95 955.89,304.95 956.89,304.95 957.89,304.95 958.89,304.96 959.89,304.96 960.89,304.96 961.89,304.96 962.89,304.96 963.89,304.96 964.89,304.96 965.90,304.96 966.90,304.96 967.90,304.96 968.90,304.96 969.90,304.96 970.90,304.96 971.90,304.96 972.90,304.96 973.90,304.96 974.90,304.96 975.91,304.96 976.91,304.96 977.91,304.96 978.91,304.96 979.91,304.96 980.91,304.96 981.91,304.96 982.91,304.96 983.91,304.96 984.91,304.97 985.92,304.97 986.92,304.97 987.92,304.97 988.92,304.97 989.92,304.97 990.92,304.97 991.92,304.97 992.92,304.97 993.92,304.97 994.92,304.97 995.93,304.97 996.93,304.97 997.93,304.97 998.93,304.97 999.93,304.97 1000.93,304.97 1001.93,304.97 1002.93,304.97 1003.93,304.97 1004.93,304.98 1005.94,304.98 1006.94,304.98 1007.94,304.98 1008.94,304.98 1009.94,304.98 1010.94,304.98 1011.94,304.98 1012.94,304.98 1013.94,304.98 1014.94,304.98 1015.95,304.98 1016.95,304.98 1017.95,304.98 1018.95,304.98 1019.95,304.98 1020.95,304.98 1021.95,304.98 1022.95,304.98 1023.95,304.98 1024.95,304.98 1025.96,304.98 1026.96,304.98 1027.96,304.98 1028.96,304.98 1029.96,304.98 1030.96,304.99 1031.96,304.99 1032.96,304.99 1033.96,304.99 1034.96,304.99 1035.97,304.99 1036.97,304.99 1037.97,304.99 1038.97,304.99 1039.97,304.99 1040.97,304.99 1041.97,304.99 1042.97,304.99 1043.97,304.99 1044.97,304.99 1045.98,304.99 1046.98,304.99 1047.98,304.99 1048.98,304.99 1049.98,304.99 1050.98,304.99 1051.98,304.99 1052.98,304.99 1053.98,304.99 1054.98,304.99 1055.99,304.99 1056.99,305.00 1057.99,305.00 1058.99,305.00 1059.99,305.00 1060.99,305.00 1061.99,305.00 1062.99,305.00 1063.99,305.00 1064.99,305.00 1066.00,305.00 1067.00,305.00 1068.00,305.00 1069.00,305.00 1070.00,305.00"/>
  <circle cx="70.00" cy="35.00" r="3.5" fill="#9b2c2c"/>
  <circle cx="1070.00" cy="305.00" r="3.5" fill="#2f855a"/>
  <text x="70" y="27" font-size="11" fill="#9b2c2c">start: 185.4</text>
  <text x="1070" y="27" text-anchor="end" font-size="11" fill="#2f855a">end: 31.44</text>
  <text x="550.0" y="350" text-anchor="middle" font-size="12" fill="#1e2a38">iteration</text>
  <text x="18" y="180.0" transform="rotate(-90 18,180.0)" text-anchor="middle" font-size="12" fill="#1e2a38">energy</text>
</svg>